<?xml version="1.0" encoding="utf-8"?>
<!-- Generator: Adobe Illustrator 22.1.0, SVG Export Plug-In . SVG Version: 6.00 Build 0)  -->
<svg version="1.1" id="Layer_1" xmlns="http://www.w3.org/2000/svg" xmlns:xlink="http://www.w3.org/1999/xlink" x="0px" y="0px"
	 viewBox="0 0 477 75" style="enable-background:new 0 0 477 75;" xml:space="preserve">
<style type="text/css">
	.st0{fill:#B99964;}
	.st1{fill-rule:evenodd;clip-rule:evenodd;fill:#B99964;}
	.st2{font-family:'TimesNewRomanPSMT';}
	.st3{font-size:26.3114px;}
</style>
<g>
	<g>
		<path class="st0" d="M52.7,22.5c0.7-2.8,0.7-4.5,0.1-5.3c-0.6-0.8-1.8-0.6-3.3,0.6c-2.5,1.8-8.5,12.6-11.5,18
			c1.2-5.3,2.9-12.8,3.3-14.4l0,0l0.1-0.3c0.4-2,0.3-3.3-0.3-4c-0.3-0.3-0.6-0.5-1-0.5c-0.7,0-1.2,0.4-1.5,0.7
			c-2.8,1.9-7.9,10.8-11.5,17.5c0.8-4.1,2.3-11.1,2.6-12.6l0.1-0.3c0.4-2.1,0.1-3.7-0.7-4.6c-0.5-0.6-1.1-0.8-1.9-0.7
			c-2.2,0.3-4.1,1.6-5.5,3.9c-3.1,5.1-3.3,14.5-0.4,23.4c-0.1,0.3-0.2,0.7-0.2,0.9c-0.5,2.1-1.2,3.5-1.2,3.6l-0.4,0.7l4.9,0.1
			c0,0,0.4-2.2,0.4-2.2c1.1-8.7,10.1-23.4,12.5-25.7c0,0,0,0,0,0c-0.7,2.7-4.5,21.6-4.9,23.7c-0.2,1-0.5,2.1-1,3.2L31,48.9h4.9
			l0-0.4c-0.6-7,11.4-25.4,11.5-25.5l0.1-0.1c0.2-0.3,0.9-1.3,1.4-1.8c0,0.3-0.1,0.7-0.3,1.5c-0.8,3.4-4.4,18.9-4.9,21.3
			c-0.6,2.5-0.5,4.1,0.1,4.9c0.2,0.3,0.6,0.5,1.2,0.5c4,0,6.9-3.2,8.2-9.3l-0.9-0.3c-1.2,3.3-3.8,6.4-4.7,6.4l0,0c0,0-0.3-0.3,0-2
			L52.7,22.5z M22.5,38.4c-1.3-7.8-0.3-14.6,2.8-17.9c0.7-0.4,0.9-0.3,0.9-0.3s0.2,0.2,0,1.2C26.1,21.9,24.2,30.9,22.5,38.4z"/>
		<path class="st1" d="M6,41.8c0.6-0.4,2.2,1.6,3.7,1.7c0.9-0.4-0.8-1.7-0.4-2.9c-1.3,0.2-1.9-0.3-2.9-0.4c-1-1.5-1.1-3.9-1.7-5.8
			c1.4,0.6,1.9,2,3.3,2.5c1.1-0.4-0.6-1.3,0-2.5c-2.7-0.4-3.7-4.5-2.5-7.4c0.7,1,0.9,2.7,2.5,2.9c1.6-1.9-0.9-3.2-1.7-4.1
			c-0.1-2.5,0.6-4.1,1.2-5.8c0.7,1.1,0.9,2.7,1.7,3.7c2-1.5,0.8-3.5-0.4-5c0.4-2.1,1.6-3.4,2.5-5c0.9,0.7,0.1,2.9,0.8,3.7
			c1.8-0.8,1.7-2.5,0.8-4.1c0.2-2.6,2.3-3.2,3.3-5c0.9,0.4-0.8,2.9,0.4,3.7c0.9-0.2,1.3-0.9,2.1-1.2c-1.9-3.7,1.9-5.2,3.7-6.6
			c1,0.8-1.1,2.2-0.4,4.1C23.8,8,23.6,5.9,24.6,5c1.7-0.4,3-1.1,5-1.2c-0.7,1.8-1.7,3.2-2.9,4.6c-1.6-0.1-3.1,0-4.1,0.4
			c0.6,1.2,2.1,1.4,3.7,1.7c-1.9,1.2-5.1,3.2-7,0.8c-0.7,0.4-1.3,0.9-1.7,1.7c0.6,0.4,2.7,1.4,3.3,0.4c0.2,1.1-4,4.7-5.8,2.5
			c-1.1,0.4-1.4,1.7-2.1,2.5c1.6,0.1,3,0,3.7-0.8c-0.1,1.4-1.8,4.8-5.4,4.1c-0.8,0.1-0.3,1.4-0.8,1.7c0.8,1,3.1,0.1,3.3-0.8
			c0.2,1.8-1.3,5.6-4.5,5.4c0.3,1.2-0.6,1.1-0.4,2.1c0.7,0.6,2.8-0.8,3.3-1.7c0.2,1.6-0.4,5.9-3.3,5.8c0,0.8,0,1.7,0,2.5
			c1.8,0,2.1-1.4,2.9-2.5c1.1,2.3,0.3,6.1-1.7,6.6c-0.3,1.3,0.4,1.5,0.4,2.5c1.2-0.6,1.7-1.9,2.1-3.3c1.4,1.3,1.9,5.5,0,6.6
			c0.1,1,0.4,1.8,1.2,2.1c1-0.5,0.8-2.2,1.2-3.3c1.2,1.5,3.1,4.4,1.2,6.6c0.4,0.7,0.9,1.3,1.7,1.7c0.9-0.4,0.2-2.6,0.4-3.7
			c1.6,1.4,4.1,3.3,2.9,6.2c0.1,0.8,1.1,0.8,1.7,1.2c0.9-0.6,0.4-3.1-0.4-3.3c1.6-0.1,5,1.6,4.6,5c5.8,3.4,13,2.7,19.4,0.4
			c-1.2-3,2.1-4.4,3.7-5.8c0.8,0.5-0.8,2.2-0.4,3.7c0.5,1,1.4-1.1,2.5-0.8c-1.5-3.1,0.9-5.6,2.9-6.6c-0.8,0.9-0.3,2.7,0,3.7
			c1.3,0.2,1.1-1.1,2.1-1.2c-2.2-2.3-0.4-4.9,0.8-7c0.7,1,0.8,2.5,1.2,3.7c0.8-0.5,0.9-1.6,1.7-2.1c-2.2-1.5-1.4-4.3-0.8-7
			c1,0.7,1.6,2,2.1,3.3c1.1,0,0.7-1.5,1.2-2.1c-1.9-1.9-2.6-3.2-2.1-7c0.9,1,1.7,2.2,2.9,2.9c0.2-0.7-0.5-2.4,0.4-2.5
			c-2.6-0.7-3.7-2.9-3.7-6.2c0.9,0.8,2,1.3,2.9,2.1c0.9,0.1,0.2-1.5,0.4-2.1c-2.6-0.8-4.4-2.5-5-5.4c1.3,0.4,2.5,0.8,3.7,1.2
			c0.1-1.2-0.9-1.3-0.8-2.5c-3.7,0.6-4.3-1.8-5.8-3.3c0.9-1.2,2.2,0.5,3.7,0c0-1.2-1.1-1.4-1.2-2.5c-0.9,0.3-1.6,0.9-2.9,0.8
			c-1.3-1-3.1-1.5-3.7-3.3c1.1,1.1,2.2-0.2,3.7,0c-0.8-2.7-2.4-1.5-4.5-0.8c-1.7-0.2-2.4-1.4-4.1-1.7c1.1-0.7,2.5-1.1,3.7-1.7
			c-0.6-1.2-2.9-0.7-4.6-0.8c-1-1.3-2.1-2.6-2.5-4.6c3.7,0.2,5.5,2.2,7,4.6c1-0.9-0.2-3.1-0.8-3.7c1.4-0.3,3.8,2,5,3.3
			c0.1,1-0.1,1.6-0.4,2.1c0,1.2,0.9,1.5,1.7,2.1c0.7-0.2,0.7-3.1,0-3.3c1.6-0.9,2.5,2.4,3.7,3.3c0.2,1.6-0.1,2.6-0.8,3.3
			c0.4,0.7,1,1.2,1.2,2.1c1.1-0.2,1.8-2.8,0.8-3.7c1.2-0.4,2.3,2.9,2.9,4.6c0.1,2.1-2.1,2.8-0.8,5c1.7-0.1,1.6-2,2.1-3.3
			c1.5,2.1,2.6,6.8-0.8,7.4c0,1,0.7,1.2,0.4,2.5c0.7,0.5,2.4-1.5,2.5-2.9c1,1.1,0.1,4,0.4,5.8c-0.8,0.7-1.7,1.3-2.9,1.7
			c0,0.8,0,1.7,0,2.5c1.3-0.7,2.9-1,2.9-2.9c0.7,2.4,0.1,6.9-3.3,6.6c-1,0.2-0.9,1.6-1.2,2.5c0.6,0.6,3-0.6,3.3-1.7
			c0.5,1.9-1.7,6.8-4.6,5.4c-1.1,0.4-1.4,1.7-2.1,2.5c1.5,0,3.3,0.2,3.7-0.8c0.5,1.5-2.1,3.4-3.3,4.6c-2.3-0.2-3.4-0.7-4.5,0.8
			c0.3,1.5,3.1,0.7,4.1,0.4c-1.2,1.7-2.9,2.9-5,3.7c-1.3,0-1.6-0.9-2.5-1.2c-1.1,0.2-1.2,1.2-2.5,1.2c0.9,0.9,2.3,1.3,4.1,1.2
			c-1.2,1.3-6.6,3.9-7.4,0.4c-2.4,0.9-5.1,1.5-7.9,2.1c2.2,1.8,6.3,1.7,8.7,3.3c-2.7,2.5-7.3-1.8-10.8-2.5c-3.9,0-9,5.6-11.2,2.1
			c3.1-0.6,5.6-1.8,8.7-2.5c-2-1.3-5.5-1.1-7.4-2.5c-1,0.7-1.8,1.6-2.9,2.1c-1.7-0.7-3.5-1.2-5-2.1c1.1-0.6,2.6-0.7,3.7-1.2
			c0-1.1-1.6-0.6-1.7-1.7C20,56.9,19.5,57.9,18,58c-1.8-0.8-3.1-2.1-4.6-3.3c0.1-0.6,3.4,0.7,4.1-0.4c-0.7-0.6-1.3-1.2-2.1-1.7
			c-3.6,1.5-4.9-2.1-6.6-3.7c0.8-1.1,1.9,1.1,3.7,0.4c0.8-0.3-0.7-1.7-0.8-2.5C8.1,48.5,7.3,43.9,6,41.8z"/>
	</g>
</g>
<g>
	<g>
		<g>
			<path class="st0" d="M398.4,42.5c-0.6,0-1.2-0.1-1.8-0.2c-0.6-0.1-1.2-0.3-1.7-0.6c-0.5-0.3-1-0.7-1.3-1.4
				c-0.4-0.6-0.5-1.3-0.6-2c-0.1-0.7,0.1-1.2,0.3-1.8c0.3-0.5,0.8-0.8,1.5-0.9c0.5-0.1,1,0.1,1.5,0.4c0.5,0.3,0.8,0.7,0.9,1.2
				c0.1,0.3,0.1,0.5,0.1,0.8c0,0.2,0,0.5-0.2,0.7c-0.1,0.2-0.3,0.4-0.4,0.6c-0.2,0.2-0.2,0.5-0.1,0.8c0.1,0.2,0.4,0.4,0.7,0.6
				c0.3,0.2,0.6,0.3,0.9,0.3c0.4,0.1,0.7,0.1,1.1,0.1c0.3,0,0.7,0,1-0.1c1.3-0.1,2.6-0.6,3.7-1.4c0.6-0.4,1.2-0.9,1.7-1.5
				c0.5-0.6,1-1.2,1.4-1.8c0.4-0.6,0.8-1.3,1.2-2c0.4-0.7,0.7-1.3,1-2c0.5-1.1,1.1-2.2,1.7-3.3c0.6-1.1,1.1-2.2,1.7-3.2
				c0.4-0.8,0.8-1.6,1.3-2.4c0.5-0.8,1-1.6,1.5-2.3c0.5-0.7,1.1-1.4,1.7-2c0.6-0.6,1.2-1.2,2-1.6c0.6-0.4,1.2-0.7,1.8-1
				c0.6-0.3,1.3-0.5,2-0.6c0.1,0,0.3,0,0.6,0c0.3,0,0.5,0,0.7,0.1c0.2,0.1,0.4,0.1,0.4,0.3c0.1,0.1,0,0.3-0.2,0.6
				c-0.1,0.1-0.3,0.3-0.4,0.3c-0.2,0.1-0.3,0.1-0.5,0.3c-0.4,0.3-0.8,0.6-1.2,1c-0.4,0.4-0.7,0.8-1,1.2c-1.2,1.5-2.2,3.1-3,4.9
				c-0.8,1.8-1.7,3.5-2.5,5.3c-0.2,0.5-0.5,1-0.7,1.5c-0.2,0.5-0.5,1-0.7,1.5c-0.7,1.4-1.5,2.8-2.6,4c-1,1.2-2.2,2.3-3.5,3.2
				c-1.1,0.8-2.4,1.4-3.7,1.8c-1.3,0.4-2.7,0.7-4.1,0.8c-0.3,0-0.7,0.1-1,0.1C399,42.5,398.7,42.5,398.4,42.5z M417.6,42.5
				c-0.2,0-0.4,0-0.6,0c-0.2,0-0.4,0-0.6-0.1c-0.5-0.1-1-0.2-1.5-0.4c-0.5-0.1-1-0.3-1.5-0.6c-0.4-0.2-0.8-0.5-1.2-0.8
				c-0.5-0.3-0.8-0.7-1-1.1c0-0.1-0.1-0.2-0.1-0.3c0-0.1-0.1-0.2-0.1-0.2c-0.1-0.2-0.2-0.4-0.1-0.6c0.1-0.2,0.2-0.3,0.3-0.4
				c0.3-0.1,0.6,0.1,0.9,0.5c0.1,0.2,0.3,0.4,0.6,0.7c0.3,0.3,0.5,0.5,0.7,0.6c0.7,0.5,1.4,0.8,2.2,0.8c0.8,0,1.5-0.1,2.3-0.3
				c0.7-0.3,1.4-0.6,2-1.1c0.6-0.5,1.1-1,1.5-1.6c0.4-0.6,0.7-1.2,1-1.9c0.3-0.7,0.5-1.4,0.5-2.2c0.1-0.7,0-1.5-0.1-2.3
				c-0.2-0.8-0.5-1.4-1-2.1c-0.5-0.6-1.1-1-1.8-1.3c-0.7-0.2-1.4-0.4-2.1-0.5c-0.8-0.1-1.1-0.4-0.7-1c0.1-0.2,0.2-0.3,0.4-0.3
				c1.4-0.1,2.8-0.4,4.1-0.9c1.3-0.5,2.4-1.3,3.3-2.5c0.2-0.3,0.5-0.6,0.6-1c0.2-0.4,0.3-0.7,0.5-1.1c0.3-0.8,0.4-1.6,0.4-2.4
				c-0.1-0.8-0.3-1.6-0.7-2.3c-0.4-0.7-0.9-1.3-1.5-1.9c-0.7-0.5-1.4-1-2.3-1.2c-1.1-0.3-2.1-0.4-3.2-0.4c-1.1,0-2.2,0.1-3.2,0.3
				c-0.9,0.1-1.7,0.3-2.6,0.6c-0.8,0.2-1.6,0.6-2.4,0.9c-1.4,0.6-2.7,1.5-3.9,2.5c-1.1,1-2.1,2.2-3,3.6c-0.4,0.6-0.7,1.3-1,2
				c-0.2,0.7-0.3,1.5-0.4,2.3c0,0.5,0,1.1,0.2,1.8c0.1,0.6,0.4,1.2,0.9,1.6c0.5,0.5,1.1,0.7,1.6,0.8c0.6,0,1.1,0,1.6-0.3
				c0.5-0.2,1.1-0.5,1.5-0.8c0.5-0.3,0.9-0.7,1.4-1c0.2-0.1,0.4-0.2,0.7-0.3c0.2,0,0.4,0.2,0.4,0.5c0,0.3-0.1,0.6-0.4,0.9
				c-0.3,0.2-0.5,0.5-0.7,0.6c-0.4,0.3-0.9,0.6-1.3,0.9s-0.9,0.6-1.4,0.8c-0.5,0.2-1,0.4-1.5,0.5c-0.5,0.1-1.1,0.2-1.7,0.1
				c-1.1-0.1-2.1-0.4-2.9-1.1c-0.8-0.7-1.4-1.6-1.7-2.6c-0.1-0.5-0.2-1.1-0.2-1.7c0-0.6,0-1.2,0.1-1.7c0.1-0.7,0.3-1.5,0.6-2.2
				c0.3-0.7,0.6-1.3,1-1.9c0.4-0.6,0.8-1.2,1.3-1.7c0.5-0.5,1-1,1.6-1.5c0.5-0.5,1.1-1,1.7-1.3c0.5-0.3,1-0.7,1.6-1
				c0.5-0.3,1.1-0.6,1.7-0.9c1.1-0.5,2.3-0.9,3.5-1.2c1.2-0.3,2.4-0.6,3.7-0.8c0.7-0.1,1.3-0.2,2.1-0.2c0.7-0.1,1.4,0,2.1,0.1
				c0.1,0,0.2,0,0.4,0c0.2,0,0.4,0,0.6,0.1c0.7,0.1,1.4,0.2,2.1,0.4c0.7,0.2,1.4,0.4,2.1,0.6c0.7,0.3,1.3,0.6,1.9,1
				c0.6,0.4,1.2,0.9,1.7,1.5c0.9,1.1,1.5,2.2,1.7,3.5c0.2,1.3,0.1,2.5-0.3,3.8c-0.2,0.7-0.5,1.2-0.9,1.7c-0.4,0.5-0.9,1-1.5,1.3
				c-0.7,0.5-1.6,0.9-2.5,1.2c-0.9,0.3-1.8,0.6-2.7,0.8c0.7,0.4,1.3,0.9,2,1.5c0.6,0.6,1.1,1.2,1.5,1.9c0.4,0.7,0.7,1.5,0.8,2.3
				c0.2,0.8,0.2,1.5,0.2,2.3c0,0.8-0.2,1.5-0.5,2.2c-0.3,0.7-0.6,1.4-1.1,2c-0.5,0.7-1.1,1.2-1.8,1.7c-0.8,0.5-1.7,0.9-2.7,1.1
				C419.7,42.5,418.7,42.6,417.6,42.5z"/>
			<path class="st0" d="M111.9,15.6c-0.1,0.1-0.2,0.3-0.5,0.4c-0.2,0.1-0.4,0.2-0.7,0.3c-0.2,0.1-0.4,0.1-0.5,0.1
				c-0.2,0.1-0.5,0.2-0.7,0.4c-0.2,0.2-0.4,0.3-0.6,0.5c-0.4,0.4-0.8,0.8-1.1,1.3c-0.3,0.5-0.6,0.9-0.9,1.4
				c-0.5,0.8-0.9,1.6-1.3,2.5c-0.4,0.9-0.8,1.7-1.2,2.6c-0.5,1.2-1.1,2.3-1.7,3.5c-0.6,1.1-1.2,2.3-1.8,3.4c-0.3,0.5-0.6,1-0.9,1.6
				c-0.3,0.5-0.6,1-1,1.5c-1.1,1.5-2.3,2.8-3.6,4c-1.4,1.2-2.9,2.1-4.7,2.7c-0.5,0.2-0.9,0.3-1.4,0.4c-0.5,0.1-1,0.2-1.5,0.3
				c-0.5,0.1-1,0.1-1.5,0.2c-0.5,0.1-1.1,0.1-1.6,0c-0.5,0-1-0.1-1.6-0.2c-0.5-0.1-1-0.3-1.5-0.5c-0.4-0.2-0.8-0.5-1.1-0.8
				c-0.3-0.3-0.6-0.7-0.8-1.1c-0.2-0.4-0.4-0.8-0.4-1.2c-0.1-0.4,0-0.9,0.1-1.3c0.1-0.4,0.3-0.7,0.6-0.9c0.3-0.3,0.6-0.4,0.9-0.5
				c0.3-0.1,0.7-0.1,1,0c0.3,0.1,0.7,0.3,0.9,0.5c0.3,0.2,0.4,0.5,0.5,0.9c0.1,0.4,0.1,0.7,0.1,1c0,0.3-0.2,0.6-0.4,0.8
				c-0.2,0.3-0.3,0.5-0.3,0.8c0,0.3,0.2,0.6,0.6,0.8c0.3,0.2,0.7,0.4,1,0.5c0.4,0.1,0.9,0.2,1.3,0.1c0.4-0.1,0.8-0.1,1.2-0.2
				c1.2-0.3,2.2-0.8,3.1-1.5c0.9-0.7,1.7-1.5,2.4-2.4c0.8-0.9,1.5-2,2.1-3.1c0.6-1.1,1.2-2.2,1.8-3.3c0.6-1.2,1.2-2.4,1.8-3.6
				c0.6-1.2,1.2-2.4,2-3.5c0.6-1,1.2-1.9,1.8-2.8c0.6-0.9,1.3-1.8,2.2-2.6c0.6-0.6,1.2-1.1,1.9-1.5c0.7-0.4,1.4-0.9,2.1-1.2
				c0.2-0.1,0.5-0.2,0.8-0.4c0.3-0.2,0.6-0.3,0.9-0.4c0.3-0.1,0.6-0.2,1-0.2c0.3,0,0.6,0,0.9,0.2l0.1,0.1
				C111.9,15.2,112,15.4,111.9,15.6z M107.9,41.7c0.7-0.2,1.3-0.6,1.9-1c0.6-0.4,1.1-0.9,1.6-1.4c0.5-0.5,1-1.1,1.4-1.7
				c0.4-0.6,0.8-1.2,1.2-1.8c0.2-0.4,0.5-0.7,0.8-1.1c0.3-0.4,0.5-0.8,0.6-1.2c0.1-0.3,0-0.5-0.1-0.7c-0.2-0.2-0.4-0.2-0.7,0
				c-0.2,0.1-0.4,0.3-0.5,0.6c-0.1,0.2-0.3,0.5-0.4,0.7c-0.2,0.3-0.3,0.6-0.5,0.8c-0.2,0.3-0.4,0.5-0.6,0.8
				c-0.1,0.2-0.3,0.4-0.5,0.7c-0.2,0.3-0.5,0.7-0.8,1c-0.3,0.4-0.6,0.7-1,1c-0.4,0.3-0.7,0.6-1,0.7c-0.4,0.2-0.7,0.3-1,0.2
				c-0.3,0-0.7-0.2-0.9-0.6c-0.1-0.2-0.2-0.4-0.3-0.7c0-0.3,0-0.5,0-0.8c0-0.3,0.1-0.5,0.2-0.8c0.1-0.3,0.2-0.5,0.2-0.6
				c0.2-0.6,0.4-1.1,0.7-1.7c0.2-0.5,0.4-1.1,0.6-1.7c0.2-0.8,0.3-1.5,0.3-2.2c0-0.7-0.2-1.4-0.6-2.1c-0.2-0.3-0.4-0.6-0.6-0.8
				c-0.2-0.2-0.5-0.5-0.7-0.7c0.1-0.1,0.2-0.1,0.4-0.1c0.6,0,1.2-0.1,1.8-0.2c0.6-0.1,1.1-0.3,1.7-0.4c0.7-0.2,1.4-0.5,2-0.8
				c1.2-0.6,2.2-1.4,3-2.4c0.8-1,1.4-2.1,1.6-3.5c0.1-0.7,0.1-1.4-0.1-2.3c-0.2-0.8-0.4-1.5-0.8-2.2c-0.3-0.6-0.7-1.1-1.2-1.5
				c-0.5-0.4-1-0.8-1.6-1.1c-0.6-0.3-1.2-0.6-1.9-0.8c-0.6-0.2-1.3-0.3-1.9-0.4c-3.5-0.4-6.9-0.1-10.1,1c-1.6,0.5-3.1,1.2-4.5,2
				c-1.4,0.8-2.7,1.9-3.8,3.1c-1.4,1.5-2.4,3.3-2.9,5.3c-0.1,0.4-0.2,0.9-0.3,1.4c0,0.5,0,1,0,1.5c0.1,0.5,0.2,1,0.4,1.5
				c0.2,0.5,0.5,0.9,0.8,1.3c0.5,0.6,1.1,1,1.8,1.2c0.7,0.2,1.4,0.2,2.1,0c0.5-0.2,1-0.4,1.6-0.6c0.5-0.2,1-0.6,1.3-1
				c0.1-0.1,0.2-0.2,0.4-0.4c0.2-0.2,0.4-0.4,0.6-0.7c0.2-0.2,0.3-0.5,0.4-0.7c0.1-0.2,0-0.4-0.2-0.5c-0.1,0-0.2-0.1-0.3,0
				c-0.1,0-0.2,0.1-0.3,0.1C97.1,25.9,97,26,96.9,26c-0.1,0.1-0.1,0.1-0.2,0.2c-0.2,0.1-0.3,0.2-0.5,0.4c-0.2,0.1-0.4,0.2-0.6,0.3
				c-0.4,0.2-0.8,0.2-1.3,0.2c-0.5,0-0.9-0.1-1.3-0.4c-0.3-0.1-0.5-0.3-0.7-0.6c-0.2-0.2-0.4-0.5-0.5-0.8c-0.2-0.7-0.3-1.4-0.2-2.1
				c0.2-1.3,0.6-2.6,1.4-3.8c0.7-1.2,1.6-2.2,2.6-3.1c1.3-1.1,2.7-2,4.3-2.6c1.6-0.6,3.3-1,5-1.2c0.7-0.1,1.4-0.1,2.1-0.1
				c0.7,0,1.4,0.1,2.1,0.3c0.7,0.2,1.3,0.4,1.9,0.7c0.6,0.3,1.2,0.8,1.7,1.3c0.5,0.5,0.8,1.1,1,1.8c0.2,0.7,0.2,1.3,0.1,2
				c-0.1,0.7-0.2,1.3-0.5,2c-0.3,0.6-0.5,1.2-0.9,1.7c-0.4,0.5-0.8,1.1-1.3,1.5c-0.5,0.5-1.1,0.9-1.7,1.2c-0.6,0.3-1.3,0.6-2,0.8
				c-0.7,0.2-1.4,0.2-2.1,0.2c-0.5,0-0.9,0-1.1,0.1c-0.2,0.1-0.3,0.3-0.3,0.5c0,0.2,0.1,0.3,0.4,0.5c0.3,0.1,0.5,0.1,0.7,0.1
				c0.1,0,0.2,0,0.4,0.1c0.2,0.1,0.3,0.2,0.5,0.4c0.2,0.2,0.3,0.4,0.3,0.7c0,0.3,0,0.6,0,0.9c0,0.3-0.1,0.6-0.2,0.8
				c-0.1,0.3-0.2,0.5-0.3,0.7c-0.3,0.7-0.6,1.3-1,1.9c-0.4,0.6-0.7,1.2-1,1.9c-0.2,0.4-0.4,0.9-0.6,1.4c-0.2,0.5-0.3,1.1-0.4,1.7
				c-0.1,0.6-0.1,1.1,0,1.7c0.1,0.6,0.3,1.1,0.6,1.5c0.2,0.2,0.4,0.4,0.6,0.6c0.2,0.2,0.5,0.3,0.7,0.4c0.3,0.1,0.6,0.2,1,0.2
				C106.3,42.1,107.1,41.9,107.9,41.7z"/>
			<path class="st0" d="M473.6,18.3c-1.9,0.1-3.5,0.2-4.8,0.2c-0.6,0-1.1-0.1-1.6-0.1c-0.5-0.1-1.1-0.1-1.9-0.1l-0.3,0l-0.1,0.9
				l0.4,0.1c0.8,0.1,1.3,0.3,1.5,0.6c0.1,0.2,0.1,0.4,0,0.8c-0.1,0.2-0.3,0.5-0.5,0.9c-0.2,0.3-0.4,0.6-0.5,0.9
				c-0.8,1.4-3.4,5.3-4.3,6.8c-0.7-1.5-2.4-5.2-3.1-6.8l-0.1-0.2c-0.4-0.8-0.7-1.5-0.7-1.9c0.1-0.8,0.6-0.9,1.6-1.1
				c0.2,0,0.3-0.1,0.5-0.1l0.3-0.1l0.1-1l-0.5,0.1c-1.3,0.1-3,0.2-5,0.2c-1.5,0-4-0.1-5.4-0.2l-0.3,0l-0.1,1l0.4,0.1
				c1.5,0.2,2.4,0.5,3.2,1.4c0.3,0.4,1.1,2,1.5,2.7l0.1,0.3c1.2,2.3,4,8.1,4.4,8.9c-0.2,1.8-0.4,5-0.6,5.8c-0.2,1.9-1.2,2.3-3.6,2.6
				l-0.3,0l-0.1,0.9l0.5,0c1.3-0.1,4-0.2,5.4-0.2c1.6,0,4.3,0.1,5.6,0.2l0.4,0l0.1-1l-0.4,0c-3-0.3-3.3-0.9-3.3-2.2
				c0-0.7,0.1-2.3,0.6-7.1c0.5-0.8,4.9-7.2,6.2-9.1c1.5-2.1,2.9-3.1,4.9-3.4l0.3,0l0.1-1L473.6,18.3z"/>
			<path class="st0" d="M273.8,37.4l-6.7-20.1h-0.8l-0.1,0.2c-0.1,0.2-8.7,17.2-9.9,19.7c-1.2,2.6-2,3.4-4.7,3.9l-0.3,0l-0.1,0.9
				h0.5c0.6,0,2.4-0.1,3.6-0.2c0.4,0,0.8,0,0.8,0l4.6,0.2l0.1-1l-0.4,0c-0.8-0.1-1.4-0.3-1.7-0.6c-0.2-0.2-0.2-0.4-0.2-0.7
				c0-0.4,0.4-1.2,0.6-1.7c0.2-0.5,1.8-3.9,2.2-4.8l3.4-0.1l3.5,0.1c0.2,0.9,1,3.6,1.4,5.2c0.2,0.8,0.2,1.4,0,1.7
				c-0.3,0.4-0.9,0.7-2.2,0.9l-0.3,0l-0.1,1h0.5c0.6,0,1.3,0,2.2-0.1c1.1-0.1,2.4-0.1,3.4-0.1c2.4,0,4.5,0.2,4.5,0.2l0.4,0l0.1-1
				l-0.4,0C275.9,40.9,274.6,39.7,273.8,37.4z M267.6,31.3l-3,0.1l-2.5-0.1l3.3-7.1L267.6,31.3z"/>
			<path class="st0" d="M340,18.3c-0.8,0.1-1.7,0.1-2.8,0.1c-0.6,0-2-0.1-2.7-0.1l-0.2,0l-0.1,0.2c-1.2,2.1-2.5,4.4-3.7,6.6
				c-2.1,3.6-4.2,7.4-6.2,10.9c-0.9-2.6-1.9-5.4-2.8-8.2c-1-3.1-2.1-6.3-3.2-9.2l-0.1-0.3l-0.3,0c-0.7,0.1-1.8,0.1-2.9,0.1
				c-0.8,0-2.5,0-3.4-0.1l-0.4,0l-0.1,1l0.4,0.1c1.6,0.2,2.4,0.9,3,2.2c0.2,0.4,0.6,1.8,0.7,2.2l-3.4,13.1c-0.8,3.1-2.1,3.9-4.2,4.2
				l-0.3,0l-0.1,0.7l0,0.2h0.3l0.7,0c1-0.1,2.3-0.2,3.8-0.2c1.8,0,3.8,0.1,4.9,0.2l0.3,0l0.1-1l-0.4,0c-1.4-0.1-2.3-0.5-2.7-1
				c-0.3-0.4-0.4-0.8-0.3-1.5c0.1-0.6,0.4-2,0.9-3.8c0.7-2.7,1.5-6.2,1.9-7.9c0.9,2.6,1.9,5.1,2.9,7.6c0.9,2.4,1.9,4.9,2.8,7.4
				l0.1,0.3h0.7l0.1-0.2c5.2-8.8,5.8-10,7.1-12.4c0.5-0.9,1.1-2,2-3.7c0,0.3,0,0.5,0,0.8c0,0.8,0.1,1.6,0.1,2.1c0,0.6,0,1.5,0.1,2.5
				c0.1,2.7,0.2,6.4,0,7.2c-0.3,2-0.9,2.3-3.4,2.6l-0.3,0l-0.1,1l0.5,0c1.6-0.1,3.3-0.2,5.4-0.2c1.5,0,3.8,0.1,5.6,0.2l0.3,0l0.1-1
				l-0.4,0c-2.9-0.3-3.1-0.8-3.2-2.3c-0.1-0.7-0.1-3.9-0.1-4l0-0.9c-0.1-2.5-0.3-7.6-0.4-11.1c0-0.2,0-0.8,0-0.9
				c0.3-1.7,0.8-2.3,3.4-2.5l0.3,0l0.1-1L340,18.3z"/>
			<path class="st0" d="M304.9,41.2c-0.8,0-1.5-0.4-1.5-0.4c-3.4-1.6-6.3-6.8-7.4-10.4c2.8-1.7,4.2-3.5,4.4-5.7
				c0.1-1.6-0.3-2.9-1.2-3.9c-1.8-1.9-5.1-2.3-7.6-2.3l0,0l-3.7,0.1c-0.4,0-0.9,0-1.5,0c-0.9,0-2.2-0.1-3.9-0.1h-0.3l-0.1,0.9
				l0.4,0.1c2.4,0.4,3,0.6,3,2.5c-0.2,3-0.4,5.4-0.7,8.2c-0.1,1.1-0.2,2.3-0.3,3.7l0,0c-0.2,2-0.4,3.9-0.5,4.8
				c-0.3,1.9-1.2,2.3-3.6,2.6l-0.3,0l-0.1,0.9l0.5,0c1.3-0.1,4-0.2,5.4-0.2c1.6,0,4.3,0.1,5.6,0.2l0.4,0l0.1-1l-0.4,0
				c-3-0.3-3.3-0.9-3.3-2.2c0-0.7,0.1-2.3,0.4-5l0.1-1.5c1,0,2.2-0.1,2.9-0.3c0,0,0,0,0,0c0.1,0,0.2-0.1,0.3-0.1
				c2,5.3,4.9,10.1,12.9,10.3l0.3,0l0.1-1L304.9,41.2z M288.9,30.7l0.6-5.8l0.4-4.7l0.1-0.1c2,0,3.7,0.7,4.8,1.8
				c0.9,1,1.3,2.3,1.2,4C295.6,28.5,292.2,30.4,288.9,30.7z"/>
			<path class="st0" d="M351.6,35.2l0.9-10.3c0.1-1.1,0.2-2.1,0.3-3c0.3-1.8,1-2.3,3.5-2.5l0.3,0l0.1-1l-0.6,0
				c-1.2,0.1-3.6,0.2-5.2,0.2c-0.6,0-1.5,0-2.5-0.1c-1.1-0.1-2.3-0.1-3-0.1l-0.3,0l-0.1,0.9l0.4,0.1c2.4,0.4,3.2,0.6,3.1,2.5
				c-0.1,1.2-0.2,2.8-0.4,4.5c-0.1,0.8-0.1,1.5-0.2,2.1c0,0.4-0.1,1-0.2,1.7c-0.2,2.6-0.6,7-0.8,8.4c-0.3,1.9-1.2,2.3-3.6,2.6
				l-0.3,0l-0.1,0.9l0.5,0c1.3-0.1,4-0.2,5.4-0.2c1.6,0,4.3,0.1,5.6,0.2l0.3,0l0.1-1l-0.4,0c-3-0.3-3.3-0.9-3.3-2.2
				C351.3,38.1,351.5,36.5,351.6,35.2z"/>
			<path class="st0" d="M387.4,18.4c-1,0.1-2.2,0.1-3.5,0.1c-0.6,0-1.5,0-2.2-0.1c-0.9-0.1-1.9-0.1-2.6-0.1l-0.3,0l-0.1,0.9l0.4,0.1
				c2.4,0.4,3.2,0.6,3.1,2.5c-0.1,1-0.2,2.5-0.3,3.9c-0.1,0.9-0.2,1.9-0.2,2.7c-0.1,1.2-0.2,2.7-0.3,4c-0.1,1.3-0.2,2.2-0.2,2.7
				c-2-2.4-9.6-11.5-13.8-16.6l-0.1-0.2l-0.2,0c-0.5,0-2,0.1-2.5,0.1c-0.4,0-0.7,0-1,0c-0.3,0-0.5,0-0.8,0c-0.7,0-1.4,0-2.4-0.1
				l-0.4,0l-0.1,0.9l0.4,0.1c2.4,0.4,3.2,0.6,3.1,2.5c-0.1,1.7-0.3,4.7-0.5,6.6c0,0.4-0.1,1-0.1,1.7c-0.2,2.7-0.6,7.1-0.8,8.5
				c-0.3,2-1.1,2.3-3.6,2.6l-0.3,0l-0.1,0.9l0.7,0c1.4-0.1,3.2-0.2,4.6-0.2c1.6,0,3.4,0.1,4.7,0.2l0.4,0l0.1-1l-0.4,0
				c-3-0.3-3.3-0.9-3.3-2.2c0-0.7,0.1-2.3,0.3-3.6l0.4-4.6l0.5-5.7c0-0.3,0-0.6,0.1-0.7c3.8,4.3,15.9,18.3,15.9,18.3l0.2,0.2
				l0.8-0.2l0-0.2c0,0,0.2-1.2,0.2-1.8l1-9.8l0.5-5.7c0.1-1.1,0.2-2.1,0.3-3c0.3-1.8,1-2.3,3.5-2.5l0.3,0l0.1-1l-0.5,0
				C388,18.3,387.7,18.3,387.4,18.4z"/>
			<path class="st0" d="M447.4,37.4l-6.7-20.1h-0.8l-0.1,0.2c-0.1,0.2-8.7,17.2-9.9,19.7c-1.2,2.6-2,3.4-4.7,3.9l-0.3,0l-0.1,0.9
				h0.5c0.6,0,2.4-0.1,3.5-0.2c0.4,0,0.8,0,0.9,0l4.6,0.2l0.1-1l-0.4,0c-0.8-0.1-1.4-0.3-1.6-0.6c-0.2-0.2-0.2-0.4-0.2-0.7
				c0-0.4,0.4-1.2,0.6-1.7c0.2-0.5,1.8-3.9,2.2-4.8l3.4-0.1l3.5,0.1c0.2,0.9,1,3.6,1.4,5.2c0.2,0.8,0.2,1.4,0,1.7
				c-0.3,0.4-0.9,0.7-2.2,0.9l-0.3,0l-0.1,1h0.5c0.6,0,1.3,0,2.2-0.1c1.1-0.1,2.4-0.1,3.4-0.1c2.4,0,4.5,0.2,4.5,0.2l0.4,0l0.1-1
				l-0.4,0C449.5,40.9,448.2,39.7,447.4,37.4z M441.2,31.3l-3,0.1l-2.5-0.1l3.3-7.1L441.2,31.3z"/>
			<path class="st0" d="M128.1,42.5c7.6,0,13.6-5.4,14.3-12.8c0.3-3.4-0.6-6.4-2.7-8.6c-2.1-2.3-5.4-3.6-9.2-3.6
				c-8.5,0-13.7,6.4-14.2,12.5c-0.3,3.4,0.7,6.6,2.9,8.9C121.4,41.3,124.5,42.5,128.1,42.5z M129.8,19.6c1.9,0,3.6,0.7,4.8,2.1
				c1.8,2,2.7,5.1,2.4,8.6c-0.7,7-4.5,10.2-8,10.2c-1.9,0-3.6-0.7-4.9-2.1c-1.9-2-2.7-5.2-2.4-8.9C122.2,23.6,125.5,19.6,129.8,19.6
				z"/>
			<path class="st0" d="M145.4,20.7c0.3,0.4,1.1,2,1.5,2.7l0.1,0.2c1.2,2.3,3.9,7.9,4.3,8.9c-0.2,1.9-0.4,5-0.5,5.8
				c-0.2,1.9-1.1,2.2-3.6,2.5l-0.3,0l-0.1,1.1l0.6,0c1.4-0.1,3.9-0.2,5.4-0.2c1.6,0,4.3,0.1,5.6,0.2l0.4,0l0.1-1.2l-0.5,0
				c-3-0.3-3.2-0.9-3.2-2.1c0-0.7,0.1-2.3,0.6-7c0.6-0.8,4.9-7.2,6.2-9.1c1.4-2.1,2.9-3.1,4.9-3.3l0.4,0l0.1-1.2l-0.6,0
				c-1.9,0.1-3.5,0.2-4.8,0.2c-0.6,0-1.1-0.1-1.6-0.1c-0.5-0.1-1.1-0.1-1.9-0.1l-0.4,0l-0.1,1l0.5,0.1c0.7,0.1,1.2,0.3,1.4,0.6
				c0,0.1,0.2,0.2,0,0.7c-0.1,0.2-0.3,0.5-0.5,0.9c-0.2,0.3-0.3,0.6-0.6,0.9c-0.8,1.4-3.2,5.1-4.2,6.7c-0.7-1.6-2.3-5.1-3.1-6.6
				l-0.1-0.2c-0.4-0.7-0.7-1.5-0.7-1.8c0.1-0.7,0.6-0.8,1.5-1c0.2,0,0.3-0.1,0.5-0.1l0.3-0.1l0.1-1.2l-0.6,0.1c-1.3,0.1-3,0.2-5,0.2
				c-1.5,0-4-0.1-5.4-0.2l-0.4,0l-0.1,1.2l0.5,0.1C143.9,19.5,144.7,19.9,145.4,20.7z"/>
			<path class="st0" d="M162,40.8l-0.3,0.1l-0.1,1.1h0.6c0.6,0,2.4-0.1,3.6-0.2c0.5,0,0.8,0,0.8-0.1l4.6,0.2l0.1-1.2l-0.5,0
				c-0.8-0.1-1.3-0.3-1.6-0.6c-0.1-0.2-0.2-0.4-0.2-0.7c0-0.4,0.4-1.2,0.6-1.6c0.2-0.5,1.7-3.8,2.2-4.7l3.3-0.1l3.4,0.1
				c0.3,1,1,3.6,1.4,5.1c0.2,0.8,0.2,1.3,0,1.6c-0.3,0.4-0.9,0.7-2.1,0.9l-0.3,0.1l-0.1,1.1h0.6c0.6,0,1.3,0,2.2-0.1
				c1.1-0.1,2.4-0.1,3.4-0.1c2.3,0,4.5,0.2,4.5,0.2l0.4,0l0.1-1.2l-0.5,0c-1.8-0.2-3-1.3-3.7-3.6L177.6,17h-0.9l-0.1,0.2
				c-0.1,0.2-8.7,17.2-9.9,19.7C165.4,39.5,164.7,40.3,162,40.8z M177.9,31.1l-2.9,0.1l-2.4-0.1l3.2-6.8L177.9,31.1z"/>
			<path class="st0" d="M210.1,35.9c-1.3,3-2.3,3.4-4.3,3.5c-1.2,0.1-1.7,0.1-3.4,0.2c-1,0-1.7-0.2-2.1-0.6c-0.3-0.4-0.5-1-0.4-1.8
				c0.1-1.1,0.2-2.6,0.3-3.9c0.1-0.9,0.1-1.8,0.2-2.2l0.6-6.4c0.1-1.1,0.2-2.1,0.3-3c0.3-1.8,1-2.3,3.4-2.5l0.4,0l0.1-1.2l-0.7,0
				c-1.2,0.1-3.5,0.2-5.1,0.2c-0.6,0-1.5,0-2.5-0.1c-1.1-0.1-2.3-0.1-3-0.1l-0.4,0l-0.1,1.1l0.5,0.1c2.5,0.4,3.1,0.6,3,2.4
				c-0.1,1.8-0.4,4.8-0.5,6.6c0,0.4-0.1,1-0.1,1.7c-0.2,2.6-0.6,7-0.8,8.4c-0.2,1.9-1.2,2.2-3.7,2.5l-0.3,0l-0.1,1.2l0.6,0
				c2.8-0.1,5.4-0.2,8.2-0.2c2.7,0,5.2,0.1,7.8,0.2l0.2,0c1.5,0,1.8-0.9,2-1.4l1.3-4.5l-1.1-0.6L210.1,35.9z"/>
			<path class="st0" d="M254.8,17.1c0.9-2.7,1.1-4.4,0.5-5.2c-0.6-0.8-1.7-0.6-3.3,0.5c-2.6,1.7-9.4,12.3-12.7,17.6
				c1.6-5.1,3.9-12.5,4.4-14l0,0l0.1-0.3c0.5-2,0.6-3.2,0-3.9c-0.2-0.3-0.6-0.5-1-0.5c-0.6,0-1.2,0.4-1.5,0.6
				c-2.9,1.9-8.6,10.5-12.7,17c1.2-4,3.2-10.8,3.6-12.3l0.1-0.3c0.5-2.1,0.4-3.6-0.2-4.5c-0.4-0.5-1-0.8-1.7-0.7
				c-2.2,0.3-4.1,1.6-5.7,3.8c-3.4,4.9-4.4,14.1-2.4,22.8c-0.1,0.3-0.2,0.7-0.3,0.9c-0.6,2.1-1.5,3.5-1.5,3.5l-0.4,0.7h4.6l0.7-2
				c1.8-8.4,11.9-22.8,14.3-25c0,0,0,0,0,0c-0.9,2.6-6.2,21-6.8,23.1c-0.2,0.9-0.7,2-1.3,3.1l-0.4,0.7h4.8v-0.4
				c0-6.8,13.2-24.7,13.4-24.8l0.1-0.1c0.2-0.3,1-1.3,1.5-1.7c0,0.3-0.2,0.7-0.4,1.5c-1.1,3.3-5.9,18.4-6.6,20.7
				c-0.8,2.5-0.9,4-0.3,4.7c0.2,0.2,0.5,0.5,1.1,0.5c3.9,0,7-3.1,8.8-9.1l-0.8-0.3c-1.4,3.2-4.2,6.2-5.1,6.2l0,0c0,0-0.3-0.3,0.2-2
				L254.8,17.1z M224,32.5c-0.6-7.6,1-14.3,4.2-17.4c0.8-0.4,0.9-0.3,0.9-0.3s0.2,0.2-0.1,1.2C228.9,16.5,226.3,25.2,224,32.5z"/>
		</g>
	</g>
</g>
<text transform="matrix(1 0 0 1 162.3965 68.9321)" class="st0 st2 st3">Boutique &amp; Art Hotel</text>
</svg>
