<?xml version="1.0" encoding="utf-8"?>
<!-- Generator: Adobe Illustrator 22.1.0, SVG Export Plug-In . SVG Version: 6.00 Build 0)  -->
<svg version="1.1" id="Layer_1" xmlns="http://www.w3.org/2000/svg" xmlns:xlink="http://www.w3.org/1999/xlink" x="0px" y="0px"
	 viewBox="0 0 133 100" style="enable-background:new 0 0 133 100;" xml:space="preserve">
<style type="text/css">
	.st0{fill:#B99964;}
	.st1{fill-rule:evenodd;clip-rule:evenodd;fill:#B99964;}
	.st2{font-family:'TimesNewRomanPSMT';}
	.st3{font-size:8.7382px;}
</style>
<g>
	<g>
		<path class="st0" d="M84.7,19.5c0.7-2.8,0.7-4.5,0.1-5.3c-0.6-0.8-1.8-0.6-3.3,0.6c-2.5,1.8-8.5,12.6-11.5,18
			c1.2-5.3,2.9-12.8,3.3-14.4l0,0l0.1-0.3c0.4-2,0.3-3.3-0.3-4c-0.3-0.3-0.6-0.5-1-0.5c-0.7,0-1.2,0.4-1.5,0.7
			c-2.8,1.9-7.9,10.8-11.5,17.5c0.8-4.1,2.3-11.1,2.6-12.6l0.1-0.3c0.4-2.1,0.1-3.7-0.7-4.6c-0.5-0.6-1.1-0.8-1.9-0.7
			c-2.2,0.3-4.1,1.6-5.5,3.9c-3.1,5.1-3.3,14.5-0.4,23.4c-0.1,0.3-0.2,0.7-0.2,0.9c-0.5,2.1-1.2,3.5-1.2,3.6l-0.4,0.7l4.9,0.1
			c0,0,0.4-2.2,0.4-2.2c1.1-8.7,10.1-23.4,12.5-25.7c0,0,0,0,0,0c-0.7,2.7-4.5,21.6-4.9,23.7c-0.2,1-0.5,2.1-1,3.2L63,45.9h4.9
			l0-0.4c-0.6-7,11.4-25.4,11.5-25.5l0.1-0.1c0.2-0.3,0.9-1.3,1.4-1.8c0,0.3-0.1,0.7-0.3,1.5c-0.8,3.4-4.4,18.9-4.9,21.3
			c-0.6,2.5-0.5,4.1,0.1,4.9c0.2,0.3,0.6,0.5,1.2,0.5c4,0,6.9-3.2,8.2-9.3l-0.9-0.3c-1.2,3.3-3.8,6.4-4.7,6.4l0,0c0,0-0.3-0.3,0-2
			L84.7,19.5z M54.5,35.4c-1.3-7.8-0.3-14.6,2.8-17.9c0.7-0.4,0.9-0.3,0.9-0.3s0.2,0.2,0,1.2C58.1,18.9,56.2,27.9,54.5,35.4z"/>
		<path class="st1" d="M38,38.8c0.6-0.4,2.2,1.6,3.7,1.7c0.9-0.4-0.8-1.7-0.4-2.9c-1.3,0.2-1.9-0.3-2.9-0.4c-1-1.5-1.1-3.9-1.7-5.8
			c1.4,0.6,1.9,2,3.3,2.5c1.1-0.4-0.6-1.3,0-2.5c-2.7-0.4-3.7-4.5-2.5-7.4c0.7,1,0.9,2.7,2.5,2.9c1.6-1.9-0.9-3.2-1.7-4.1
			c-0.1-2.5,0.6-4.1,1.2-5.8c0.7,1.1,0.9,2.7,1.7,3.7c2-1.5,0.8-3.5-0.4-5c0.4-2.1,1.6-3.4,2.5-5c0.9,0.7,0.1,2.9,0.8,3.7
			c1.8-0.8,1.7-2.5,0.8-4.1c0.2-2.6,2.3-3.2,3.3-5c0.9,0.4-0.8,2.9,0.4,3.7c0.9-0.2,1.3-0.9,2.1-1.2c-1.9-3.7,1.9-5.2,3.7-6.6
			c1,0.8-1.1,2.2-0.4,4.1C55.8,5,55.6,2.9,56.6,2c1.7-0.4,3-1.1,5-1.2c-0.7,1.8-1.7,3.2-2.9,4.6c-1.6-0.1-3.1,0-4.1,0.4
			c0.6,1.2,2.1,1.4,3.7,1.7c-1.9,1.2-5.1,3.2-7,0.8c-0.7,0.4-1.3,0.9-1.7,1.7c0.6,0.4,2.7,1.4,3.3,0.4c0.2,1.1-4,4.7-5.8,2.5
			c-1.1,0.4-1.4,1.7-2.1,2.5c1.6,0.1,3,0,3.7-0.8c-0.1,1.4-1.8,4.8-5.4,4.1c-0.8,0.1-0.3,1.4-0.8,1.7c0.8,1,3.1,0.1,3.3-0.8
			c0.2,1.8-1.3,5.6-4.5,5.4c0.3,1.2-0.6,1.1-0.4,2.1c0.7,0.6,2.8-0.8,3.3-1.7c0.2,1.6-0.4,5.9-3.3,5.8c0,0.8,0,1.7,0,2.5
			c1.8,0,2.1-1.4,2.9-2.5c1.1,2.3,0.3,6.1-1.7,6.6c-0.3,1.3,0.4,1.5,0.4,2.5c1.2-0.6,1.7-1.9,2.1-3.3c1.4,1.3,1.9,5.5,0,6.6
			c0.1,1,0.4,1.8,1.2,2.1c1-0.5,0.8-2.2,1.2-3.3c1.2,1.5,3.1,4.4,1.2,6.6c0.4,0.7,0.9,1.3,1.7,1.7c0.9-0.4,0.2-2.6,0.4-3.7
			c1.6,1.4,4.1,3.3,2.9,6.2c0.1,0.8,1.1,0.8,1.7,1.2c0.9-0.6,0.4-3.1-0.4-3.3c1.6-0.1,5,1.6,4.6,5c5.8,3.4,13,2.7,19.4,0.4
			c-1.2-3,2.1-4.4,3.7-5.8c0.8,0.5-0.8,2.2-0.4,3.7c0.5,1,1.4-1.1,2.5-0.8c-1.5-3.1,0.9-5.6,2.9-6.6c-0.8,0.9-0.3,2.7,0,3.7
			c1.3,0.2,1.1-1.1,2.1-1.2c-2.2-2.3-0.4-4.9,0.8-7c0.7,1,0.8,2.5,1.2,3.7c0.8-0.5,0.9-1.6,1.7-2.1c-2.2-1.5-1.4-4.3-0.8-7
			c1,0.7,1.6,2,2.1,3.3c1.1,0,0.7-1.5,1.2-2.1c-1.9-1.9-2.6-3.2-2.1-7c0.9,1,1.7,2.2,2.9,2.9c0.2-0.7-0.5-2.4,0.4-2.5
			c-2.6-0.7-3.7-2.9-3.7-6.2c0.9,0.8,2,1.3,2.9,2.1c0.9,0.1,0.2-1.5,0.4-2.1c-2.6-0.8-4.4-2.5-5-5.4c1.3,0.4,2.5,0.8,3.7,1.2
			c0.1-1.2-0.9-1.3-0.8-2.5c-3.7,0.6-4.3-1.8-5.8-3.3c0.9-1.2,2.2,0.5,3.7,0c0-1.2-1.1-1.4-1.2-2.5c-0.9,0.3-1.6,0.9-2.9,0.8
			c-1.3-1-3.1-1.5-3.7-3.3c1.1,1.1,2.2-0.2,3.7,0c-0.8-2.7-2.4-1.5-4.5-0.8c-1.7-0.2-2.4-1.4-4.1-1.7c1.1-0.7,2.5-1.1,3.7-1.7
			c-0.6-1.2-2.9-0.7-4.6-0.8c-1-1.3-2.1-2.6-2.5-4.6c3.7,0.2,5.5,2.2,7,4.6c1-0.9-0.2-3.1-0.8-3.7c1.4-0.3,3.8,2,5,3.3
			c0.1,1-0.1,1.6-0.4,2.1c0,1.2,0.9,1.5,1.7,2.1c0.7-0.2,0.7-3.1,0-3.3C90.1,4.9,91,8.2,92.2,9c0.2,1.6-0.1,2.6-0.8,3.3
			c0.4,0.7,1,1.2,1.2,2.1c1.1-0.2,1.8-2.8,0.8-3.7c1.2-0.4,2.3,2.9,2.9,4.6c0.1,2.1-2.1,2.8-0.8,5c1.7-0.1,1.6-2,2.1-3.3
			c1.5,2.1,2.6,6.8-0.8,7.4c0,1,0.7,1.2,0.4,2.5c0.7,0.5,2.4-1.5,2.5-2.9c1,1.1,0.1,4,0.4,5.8c-0.8,0.7-1.7,1.3-2.9,1.7
			c0,0.8,0,1.7,0,2.5c1.3-0.7,2.9-1,2.9-2.9c0.7,2.4,0.1,6.9-3.3,6.6c-1,0.2-0.9,1.6-1.2,2.5c0.6,0.6,3-0.6,3.3-1.7
			c0.5,1.9-1.7,6.8-4.6,5.4c-1.1,0.4-1.4,1.7-2.1,2.5c1.5,0,3.3,0.2,3.7-0.8c0.5,1.5-2.1,3.4-3.3,4.6c-2.3-0.2-3.4-0.7-4.5,0.8
			c0.3,1.5,3.1,0.7,4.1,0.4c-1.2,1.7-2.9,2.9-5,3.7c-1.3,0-1.6-0.9-2.5-1.2c-1.1,0.2-1.2,1.2-2.5,1.2c0.9,0.9,2.3,1.3,4.1,1.2
			c-1.2,1.3-6.6,3.9-7.4,0.4c-2.4,0.9-5.1,1.5-7.9,2.1c2.2,1.8,6.3,1.7,8.7,3.3c-2.7,2.5-7.3-1.8-10.8-2.5c-3.9,0-9,5.6-11.2,2.1
			c3.1-0.6,5.6-1.8,8.7-2.5c-2-1.3-5.5-1.1-7.4-2.5c-1,0.7-1.8,1.6-2.9,2.1c-1.7-0.7-3.5-1.2-5-2.1c1.1-0.6,2.6-0.7,3.7-1.2
			c0-1.1-1.6-0.6-1.7-1.7C52,53.9,51.5,54.9,50,55c-1.8-0.8-3.1-2.1-4.6-3.3c0.1-0.6,3.4,0.7,4.1-0.4c-0.7-0.6-1.3-1.2-2.1-1.7
			c-3.6,1.5-4.9-2.1-6.6-3.7c0.8-1.1,1.9,1.1,3.7,0.4c0.8-0.3-0.7-1.7-0.8-2.5C40.1,45.5,39.3,40.9,38,38.8z"/>
	</g>
</g>
<g>
	<g>
		<g>
			<path class="st0" d="M107.2,88.5c-0.2,0-0.4,0-0.6-0.1c-0.2,0-0.4-0.1-0.6-0.2c-0.2-0.1-0.3-0.2-0.4-0.5
				c-0.1-0.2-0.2-0.4-0.2-0.6c0-0.2,0-0.4,0.1-0.6c0.1-0.2,0.3-0.3,0.5-0.3c0.2,0,0.3,0,0.5,0.1c0.2,0.1,0.3,0.2,0.3,0.4
				c0,0.1,0,0.2,0,0.3c0,0.1,0,0.2-0.1,0.2c0,0.1-0.1,0.1-0.1,0.2c-0.1,0.1-0.1,0.2,0,0.3c0,0.1,0.1,0.1,0.2,0.2
				c0.1,0.1,0.2,0.1,0.3,0.1c0.1,0,0.2,0,0.4,0c0.1,0,0.2,0,0.3,0c0.4,0,0.9-0.2,1.2-0.5c0.2-0.1,0.4-0.3,0.5-0.5
				c0.2-0.2,0.3-0.4,0.5-0.6c0.1-0.2,0.3-0.4,0.4-0.7c0.1-0.2,0.2-0.4,0.3-0.7c0.2-0.4,0.4-0.7,0.6-1.1c0.2-0.4,0.4-0.7,0.6-1.1
				c0.1-0.3,0.3-0.5,0.4-0.8c0.2-0.3,0.3-0.5,0.5-0.8c0.2-0.2,0.4-0.5,0.6-0.7c0.2-0.2,0.4-0.4,0.7-0.5c0.2-0.1,0.4-0.2,0.6-0.3
				c0.2-0.1,0.4-0.2,0.7-0.2c0,0,0.1,0,0.2,0c0.1,0,0.2,0,0.2,0c0.1,0,0.1,0,0.1,0.1c0,0,0,0.1-0.1,0.2c0,0-0.1,0.1-0.1,0.1
				c-0.1,0-0.1,0-0.2,0.1c-0.1,0.1-0.3,0.2-0.4,0.3c-0.1,0.1-0.2,0.3-0.3,0.4c-0.4,0.5-0.7,1-1,1.6c-0.3,0.6-0.6,1.2-0.8,1.8
				c-0.1,0.2-0.2,0.3-0.2,0.5c-0.1,0.2-0.2,0.3-0.2,0.5c-0.2,0.5-0.5,0.9-0.8,1.3c-0.3,0.4-0.7,0.7-1.2,1c-0.4,0.3-0.8,0.5-1.2,0.6
				c-0.4,0.1-0.9,0.2-1.4,0.3c-0.1,0-0.2,0-0.3,0C107.4,88.5,107.3,88.5,107.2,88.5z M113.6,88.6c-0.1,0-0.1,0-0.2,0
				c-0.1,0-0.1,0-0.2,0c-0.2,0-0.3-0.1-0.5-0.1c-0.2,0-0.3-0.1-0.5-0.2c-0.1-0.1-0.3-0.2-0.4-0.3c-0.2-0.1-0.3-0.2-0.3-0.4
				c0,0,0-0.1,0-0.1c0,0,0-0.1,0-0.1c0-0.1-0.1-0.1,0-0.2c0-0.1,0.1-0.1,0.1-0.1c0.1,0,0.2,0,0.3,0.2c0,0.1,0.1,0.1,0.2,0.2
				c0.1,0.1,0.2,0.2,0.2,0.2c0.2,0.2,0.5,0.3,0.7,0.3c0.3,0,0.5,0,0.8-0.1c0.2-0.1,0.5-0.2,0.7-0.4c0.2-0.2,0.4-0.3,0.5-0.5
				c0.1-0.2,0.2-0.4,0.3-0.6c0.1-0.2,0.2-0.5,0.2-0.7c0-0.2,0-0.5,0-0.7c-0.1-0.3-0.2-0.5-0.3-0.7c-0.2-0.2-0.4-0.3-0.6-0.4
				c-0.2-0.1-0.5-0.1-0.7-0.2c-0.3,0-0.3-0.1-0.2-0.3c0-0.1,0.1-0.1,0.1-0.1c0.5,0,0.9-0.1,1.4-0.3c0.4-0.2,0.8-0.4,1.1-0.8
				c0.1-0.1,0.2-0.2,0.2-0.3c0.1-0.1,0.1-0.2,0.2-0.4c0.1-0.3,0.1-0.5,0.1-0.8c0-0.3-0.1-0.5-0.2-0.7c-0.1-0.2-0.3-0.4-0.5-0.6
				c-0.2-0.2-0.5-0.3-0.8-0.4c-0.3-0.1-0.7-0.1-1.1-0.1c-0.4,0-0.7,0-1.1,0.1c-0.3,0-0.6,0.1-0.8,0.2c-0.3,0.1-0.5,0.2-0.8,0.3
				c-0.5,0.2-0.9,0.5-1.3,0.8c-0.4,0.3-0.7,0.7-1,1.2c-0.1,0.2-0.2,0.4-0.3,0.7c-0.1,0.2-0.1,0.5-0.1,0.7c0,0.2,0,0.4,0.1,0.6
				c0,0.2,0.1,0.4,0.3,0.5c0.2,0.2,0.4,0.2,0.5,0.2c0.2,0,0.4,0,0.5-0.1c0.2-0.1,0.3-0.2,0.5-0.3c0.2-0.1,0.3-0.2,0.5-0.3
				c0.1,0,0.1-0.1,0.2-0.1c0.1,0,0.1,0.1,0.1,0.2c0,0.1,0,0.2-0.1,0.3c-0.1,0.1-0.2,0.2-0.2,0.2c-0.1,0.1-0.3,0.2-0.4,0.3
				c-0.2,0.1-0.3,0.2-0.5,0.3c-0.2,0.1-0.3,0.1-0.5,0.2c-0.2,0-0.4,0.1-0.6,0c-0.4,0-0.7-0.1-1-0.4c-0.3-0.2-0.5-0.5-0.6-0.9
				c0-0.2-0.1-0.4-0.1-0.6c0-0.2,0-0.4,0-0.6c0-0.2,0.1-0.5,0.2-0.7c0.1-0.2,0.2-0.4,0.3-0.6c0.1-0.2,0.3-0.4,0.4-0.6
				c0.2-0.2,0.3-0.3,0.5-0.5c0.2-0.2,0.4-0.3,0.6-0.4c0.2-0.1,0.3-0.2,0.5-0.3c0.2-0.1,0.4-0.2,0.6-0.3c0.4-0.2,0.8-0.3,1.2-0.4
				c0.4-0.1,0.8-0.2,1.2-0.3c0.2,0,0.4-0.1,0.7-0.1c0.2,0,0.5,0,0.7,0c0,0,0.1,0,0.1,0c0.1,0,0.1,0,0.2,0c0.2,0,0.5,0.1,0.7,0.1
				c0.2,0.1,0.5,0.1,0.7,0.2c0.2,0.1,0.4,0.2,0.6,0.3c0.2,0.1,0.4,0.3,0.6,0.5c0.3,0.4,0.5,0.7,0.6,1.2c0.1,0.4,0,0.8-0.1,1.3
				c-0.1,0.2-0.2,0.4-0.3,0.6c-0.1,0.2-0.3,0.3-0.5,0.4c-0.2,0.2-0.5,0.3-0.8,0.4c-0.3,0.1-0.6,0.2-0.9,0.3c0.2,0.1,0.4,0.3,0.6,0.5
				c0.2,0.2,0.4,0.4,0.5,0.6c0.1,0.2,0.2,0.5,0.3,0.7c0.1,0.3,0.1,0.5,0.1,0.8c0,0.3-0.1,0.5-0.2,0.7c-0.1,0.2-0.2,0.5-0.4,0.7
				c-0.2,0.2-0.4,0.4-0.6,0.6c-0.3,0.2-0.6,0.3-0.9,0.4C114.2,88.5,113.9,88.6,113.6,88.6z"/>
			<path class="st0" d="M12,79.6c0,0-0.1,0.1-0.2,0.1c-0.1,0-0.1,0.1-0.2,0.1c-0.1,0-0.1,0-0.2,0c-0.1,0-0.2,0.1-0.2,0.1
				c-0.1,0.1-0.1,0.1-0.2,0.2c-0.1,0.1-0.3,0.3-0.4,0.4c-0.1,0.2-0.2,0.3-0.3,0.5c-0.2,0.3-0.3,0.5-0.4,0.8
				c-0.1,0.3-0.3,0.6-0.4,0.9c-0.2,0.4-0.4,0.8-0.5,1.2c-0.2,0.4-0.4,0.8-0.6,1.1c-0.1,0.2-0.2,0.3-0.3,0.5C8,85.7,7.9,85.9,7.8,86
				C7.4,86.5,7,87,6.6,87.4c-0.4,0.4-1,0.7-1.6,0.9c-0.2,0.1-0.3,0.1-0.5,0.1c-0.2,0-0.3,0.1-0.5,0.1c-0.2,0-0.3,0-0.5,0.1
				c-0.2,0-0.3,0-0.5,0c-0.2,0-0.3,0-0.5-0.1c-0.2,0-0.3-0.1-0.5-0.2c-0.1-0.1-0.3-0.2-0.4-0.3c-0.1-0.1-0.2-0.2-0.3-0.4
				c-0.1-0.1-0.1-0.3-0.1-0.4c0-0.1,0-0.3,0-0.4c0-0.1,0.1-0.2,0.2-0.3c0.1-0.1,0.2-0.1,0.3-0.2c0.1,0,0.2,0,0.3,0
				c0.1,0,0.2,0.1,0.3,0.2c0.1,0.1,0.1,0.2,0.2,0.3c0,0.1,0,0.2,0,0.3c0,0.1-0.1,0.2-0.1,0.3c-0.1,0.1-0.1,0.2-0.1,0.3
				c0,0.1,0.1,0.2,0.2,0.3c0.1,0.1,0.2,0.1,0.3,0.2c0.1,0,0.3,0.1,0.4,0c0.1,0,0.3,0,0.4-0.1c0.4-0.1,0.7-0.3,1-0.5
				c0.3-0.2,0.6-0.5,0.8-0.8c0.3-0.3,0.5-0.6,0.7-1c0.2-0.4,0.4-0.7,0.6-1.1c0.2-0.4,0.4-0.8,0.6-1.2c0.2-0.4,0.4-0.8,0.7-1.2
				c0.2-0.3,0.4-0.6,0.6-0.9c0.2-0.3,0.4-0.6,0.7-0.9c0.2-0.2,0.4-0.4,0.6-0.5c0.2-0.1,0.5-0.3,0.7-0.4c0.1,0,0.2-0.1,0.3-0.1
				c0.1-0.1,0.2-0.1,0.3-0.1c0.1,0,0.2-0.1,0.3-0.1c0.1,0,0.2,0,0.3,0.1l0,0C12,79.5,12,79.6,12,79.6z M10.7,88.3
				c0.2-0.1,0.4-0.2,0.6-0.3c0.2-0.1,0.4-0.3,0.5-0.5c0.2-0.2,0.3-0.4,0.5-0.6c0.1-0.2,0.3-0.4,0.4-0.6c0.1-0.1,0.2-0.2,0.3-0.4
				c0.1-0.1,0.2-0.3,0.2-0.4c0-0.1,0-0.2,0-0.2c-0.1-0.1-0.1-0.1-0.2,0c-0.1,0-0.1,0.1-0.2,0.2c0,0.1-0.1,0.2-0.1,0.2
				c-0.1,0.1-0.1,0.2-0.2,0.3c-0.1,0.1-0.1,0.2-0.2,0.3c0,0.1-0.1,0.1-0.2,0.2c-0.1,0.1-0.2,0.2-0.3,0.3c-0.1,0.1-0.2,0.2-0.3,0.3
				c-0.1,0.1-0.2,0.2-0.3,0.2c-0.1,0.1-0.2,0.1-0.3,0.1c-0.1,0-0.2-0.1-0.3-0.2c0-0.1-0.1-0.1-0.1-0.2c0-0.1,0-0.2,0-0.3
				c0-0.1,0-0.2,0.1-0.3c0-0.1,0.1-0.2,0.1-0.2c0.1-0.2,0.1-0.4,0.2-0.6c0.1-0.2,0.1-0.4,0.2-0.6c0.1-0.3,0.1-0.5,0.1-0.7
				c0-0.2-0.1-0.5-0.2-0.7c-0.1-0.1-0.1-0.2-0.2-0.3c-0.1-0.1-0.2-0.2-0.2-0.2c0,0,0.1,0,0.1,0c0.2,0,0.4,0,0.6-0.1
				c0.2,0,0.4-0.1,0.6-0.1c0.2-0.1,0.4-0.2,0.7-0.3c0.4-0.2,0.7-0.5,1-0.8c0.3-0.3,0.5-0.7,0.5-1.2c0-0.2,0-0.5,0-0.7
				c-0.1-0.3-0.1-0.5-0.3-0.7c-0.1-0.2-0.2-0.4-0.4-0.5c-0.2-0.1-0.3-0.3-0.5-0.4c-0.2-0.1-0.4-0.2-0.6-0.2
				c-0.2-0.1-0.4-0.1-0.6-0.1c-1.2-0.1-2.3,0-3.4,0.3c-0.5,0.2-1,0.4-1.5,0.7c-0.5,0.3-0.9,0.6-1.3,1c-0.5,0.5-0.8,1.1-1,1.8
				c0,0.1-0.1,0.3-0.1,0.5c0,0.2,0,0.3,0,0.5c0,0.2,0.1,0.3,0.1,0.5c0.1,0.2,0.2,0.3,0.3,0.4c0.2,0.2,0.4,0.3,0.6,0.4
				c0.2,0.1,0.5,0.1,0.7,0c0.2-0.1,0.3-0.1,0.5-0.2c0.2-0.1,0.3-0.2,0.4-0.3c0,0,0.1-0.1,0.1-0.1c0.1-0.1,0.1-0.1,0.2-0.2
				c0.1-0.1,0.1-0.2,0.1-0.2c0-0.1,0-0.1-0.1-0.2c0,0-0.1,0-0.1,0c0,0-0.1,0-0.1,0c0,0-0.1,0-0.1,0.1c0,0,0,0-0.1,0.1
				c-0.1,0-0.1,0.1-0.2,0.1c-0.1,0-0.1,0.1-0.2,0.1c-0.1,0.1-0.3,0.1-0.4,0.1c-0.2,0-0.3,0-0.4-0.1c-0.1,0-0.2-0.1-0.2-0.2
				c-0.1-0.1-0.1-0.2-0.2-0.3c-0.1-0.2-0.1-0.5-0.1-0.7c0.1-0.4,0.2-0.9,0.5-1.3c0.2-0.4,0.5-0.7,0.9-1c0.4-0.4,0.9-0.7,1.4-0.8
				c0.5-0.2,1.1-0.3,1.7-0.4c0.2,0,0.4,0,0.7,0c0.2,0,0.5,0,0.7,0.1c0.2,0.1,0.4,0.1,0.6,0.2c0.2,0.1,0.4,0.3,0.5,0.4
				c0.2,0.2,0.3,0.4,0.3,0.6c0.1,0.2,0.1,0.4,0,0.7c0,0.2-0.1,0.4-0.2,0.7c-0.1,0.2-0.2,0.4-0.3,0.6c-0.1,0.2-0.3,0.3-0.4,0.5
				c-0.2,0.2-0.4,0.3-0.6,0.4c-0.2,0.1-0.4,0.2-0.7,0.2c-0.2,0.1-0.5,0.1-0.7,0.1c-0.2,0-0.3,0-0.4,0c-0.1,0-0.1,0.1-0.1,0.2
				c0,0.1,0,0.1,0.1,0.2c0.1,0,0.2,0,0.2,0c0,0,0.1,0,0.1,0c0.1,0,0.1,0.1,0.2,0.1c0.1,0.1,0.1,0.1,0.1,0.2c0,0.1,0,0.2,0,0.3
				c0,0.1,0,0.2-0.1,0.3c0,0.1-0.1,0.2-0.1,0.2c-0.1,0.2-0.2,0.4-0.3,0.6c-0.1,0.2-0.2,0.4-0.3,0.6c-0.1,0.1-0.1,0.3-0.2,0.5
				C9.1,86.5,9,86.7,9,86.9c0,0.2,0,0.4,0,0.6C9,87.6,9,87.8,9.2,88c0.1,0.1,0.1,0.1,0.2,0.2c0.1,0.1,0.2,0.1,0.2,0.1
				c0.1,0,0.2,0.1,0.3,0.1C10.2,88.4,10.4,88.4,10.7,88.3z"/>
			<path class="st0" d="M132.2,80.5c-0.6,0-1.2,0.1-1.6,0.1c-0.2,0-0.4,0-0.5,0c-0.2,0-0.4,0-0.6,0l-0.1,0l0,0.3l0.1,0
				c0.3,0,0.4,0.1,0.5,0.2c0,0.1,0,0.1,0,0.3c0,0.1-0.1,0.2-0.2,0.3c-0.1,0.1-0.1,0.2-0.2,0.3c-0.3,0.5-1.1,1.8-1.4,2.3
				c-0.2-0.5-0.8-1.7-1-2.3l0-0.1c-0.1-0.3-0.2-0.5-0.2-0.6c0-0.3,0.2-0.3,0.5-0.4c0.1,0,0.1,0,0.2,0l0.1,0l0-0.3l-0.2,0
				c-0.4,0-1,0.1-1.7,0.1c-0.5,0-1.3,0-1.8-0.1l-0.1,0l0,0.3l0.1,0c0.5,0.1,0.8,0.2,1.1,0.5c0.1,0.1,0.4,0.7,0.5,0.9l0,0.1
				c0.4,0.8,1.3,2.7,1.5,3c-0.1,0.6-0.1,1.7-0.2,1.9c-0.1,0.6-0.4,0.7-1.2,0.9l-0.1,0l0,0.3l0.2,0c0.4,0,1.3-0.1,1.8-0.1
				c0.5,0,1.4,0,1.9,0.1l0.1,0l0-0.3l-0.1,0c-1-0.1-1.1-0.3-1.1-0.7c0-0.2,0-0.8,0.2-2.3c0.2-0.3,1.6-2.4,2.1-3c0.5-0.7,1-1,1.6-1.1
				l0.1,0l0-0.3L132.2,80.5z"/>
			<path class="st0" d="M65.8,86.8l-2.2-6.7h-0.3l0,0.1c0,0.1-2.9,5.7-3.3,6.5c-0.4,0.9-0.7,1.1-1.6,1.3l-0.1,0l0,0.3h0.2
				c0.2,0,0.8,0,1.2-0.1c0.1,0,0.3,0,0.3,0l1.5,0.1l0-0.3l-0.1,0c-0.3,0-0.5-0.1-0.5-0.2c-0.1-0.1-0.1-0.1-0.1-0.2
				c0-0.1,0.1-0.4,0.2-0.6c0.1-0.2,0.6-1.3,0.7-1.6l1.1,0l1.2,0c0.1,0.3,0.3,1.2,0.5,1.7c0.1,0.3,0.1,0.4,0,0.6
				c-0.1,0.1-0.3,0.2-0.7,0.3l-0.1,0l0,0.3h0.2c0.2,0,0.4,0,0.7,0c0.4,0,0.8,0,1.1,0c0.8,0,1.5,0.1,1.5,0.1l0.1,0l0-0.3l-0.1,0
				C66.5,88,66,87.6,65.8,86.8z M63.7,84.8l-1,0l-0.8,0l1.1-2.4L63.7,84.8z"/>
			<path class="st0" d="M87.8,80.5c-0.3,0-0.6,0-0.9,0c-0.2,0-0.7,0-0.9,0l-0.1,0l0,0.1c-0.4,0.7-0.8,1.5-1.2,2.2
				c-0.7,1.2-1.4,2.5-2.1,3.6c-0.3-0.9-0.6-1.8-0.9-2.7c-0.3-1-0.7-2.1-1-3l0-0.1l-0.1,0c-0.2,0-0.6,0-1,0c-0.3,0-0.8,0-1.1,0
				l-0.1,0l0,0.3l0.1,0c0.5,0.1,0.8,0.3,1,0.7c0.1,0.1,0.2,0.6,0.2,0.7l-1.1,4.4c-0.3,1-0.7,1.3-1.4,1.4l-0.1,0l0,0.2l0,0.1H77
				l0.2,0c0.3,0,0.7-0.1,1.3-0.1c0.6,0,1.3,0,1.6,0.1l0.1,0l0-0.3l-0.1,0c-0.5,0-0.8-0.2-0.9-0.3c-0.1-0.1-0.1-0.3-0.1-0.5
				c0-0.2,0.1-0.7,0.3-1.3c0.2-0.9,0.5-2.1,0.6-2.6c0.3,0.9,0.6,1.7,1,2.5c0.3,0.8,0.6,1.6,0.9,2.5l0,0.1h0.2l0-0.1
				c1.7-2.9,1.9-3.3,2.4-4.1c0.2-0.3,0.4-0.7,0.7-1.2c0,0.1,0,0.2,0,0.3c0,0.3,0,0.5,0,0.7c0,0.2,0,0.5,0,0.8c0,0.9,0.1,2.1,0,2.4
				c-0.1,0.6-0.3,0.7-1.1,0.9l-0.1,0l0,0.3l0.2,0c0.5,0,1.1-0.1,1.8-0.1c0.5,0,1.3,0,1.9,0.1l0.1,0l0-0.3l-0.1,0
				c-1-0.1-1-0.3-1.1-0.8c0-0.2,0-1.3,0-1.3l0-0.3c0-0.8-0.1-2.5-0.1-3.7c0-0.1,0-0.3,0-0.3c0.1-0.6,0.3-0.8,1.1-0.8l0.1,0l0-0.3
				L87.8,80.5z"/>
			<path class="st0" d="M76.1,88.1c-0.3,0-0.5-0.1-0.5-0.1c-1.1-0.5-2.1-2.2-2.5-3.4c0.9-0.5,1.4-1.2,1.5-1.9c0-0.5-0.1-1-0.4-1.3
				c-0.6-0.6-1.7-0.8-2.5-0.8l0,0l-1.2,0c-0.1,0-0.3,0-0.5,0c-0.3,0-0.7,0-1.3,0h-0.1l0,0.3l0.1,0c0.8,0.1,1,0.2,1,0.8
				c-0.1,1-0.1,1.8-0.2,2.7c0,0.4-0.1,0.8-0.1,1.2l0,0c-0.1,0.7-0.1,1.3-0.2,1.6c-0.1,0.6-0.4,0.7-1.2,0.9l-0.1,0l0,0.3l0.2,0
				c0.4,0,1.3-0.1,1.8-0.1c0.5,0,1.4,0,1.9,0.1l0.1,0l0-0.3l-0.1,0c-1-0.1-1.1-0.3-1.1-0.7c0-0.2,0-0.8,0.1-1.7l0-0.5
				c0.3,0,0.7,0,1-0.1c0,0,0,0,0,0c0,0,0.1,0,0.1,0c0.7,1.8,1.6,3.3,4.3,3.4l0.1,0l0-0.3L76.1,88.1z M70.8,84.6l0.2-1.9l0.1-1.6l0,0
				c0.7,0,1.2,0.2,1.6,0.6c0.3,0.3,0.4,0.8,0.4,1.3C73,83.9,71.9,84.5,70.8,84.6z"/>
			<path class="st0" d="M91.6,86.1l0.3-3.4c0-0.4,0.1-0.7,0.1-1c0.1-0.6,0.3-0.8,1.2-0.8l0.1,0l0-0.3l-0.2,0c-0.4,0-1.2,0.1-1.7,0.1
				c-0.2,0-0.5,0-0.8,0c-0.4,0-0.7,0-1,0l-0.1,0l0,0.3l0.1,0c0.8,0.1,1.1,0.2,1,0.8c0,0.4-0.1,0.9-0.1,1.5c0,0.3,0,0.5-0.1,0.7
				c0,0.1,0,0.3-0.1,0.6c-0.1,0.9-0.2,2.3-0.3,2.8c-0.1,0.6-0.4,0.7-1.2,0.9l-0.1,0l0,0.3l0.2,0c0.4,0,1.3-0.1,1.8-0.1
				c0.5,0,1.4,0,1.9,0.1l0.1,0l0-0.3l-0.1,0c-1-0.1-1.1-0.3-1.1-0.7C91.5,87.1,91.6,86.6,91.6,86.1z"/>
			<path class="st0" d="M103.5,80.5c-0.3,0-0.7,0-1.2,0c-0.2,0-0.5,0-0.7,0c-0.3,0-0.6,0-0.9,0l-0.1,0l0,0.3l0.1,0
				c0.8,0.1,1.1,0.2,1,0.8c0,0.3-0.1,0.8-0.1,1.3c0,0.3-0.1,0.6-0.1,0.9c0,0.4-0.1,0.9-0.1,1.3c0,0.4-0.1,0.7-0.1,0.9
				c-0.7-0.8-3.2-3.8-4.6-5.5l0-0.1l-0.1,0c-0.2,0-0.6,0-0.8,0c-0.1,0-0.2,0-0.3,0c-0.1,0-0.2,0-0.3,0c-0.2,0-0.5,0-0.8,0l-0.1,0
				l0,0.3l0.1,0c0.8,0.1,1,0.2,1,0.8c0,0.6-0.1,1.5-0.2,2.2c0,0.1,0,0.3,0,0.6c-0.1,0.9-0.2,2.4-0.3,2.8c-0.1,0.6-0.4,0.7-1.2,0.9
				l-0.1,0l0,0.3l0.2,0c0.5,0,1.1-0.1,1.5-0.1c0.5,0,1.1,0,1.6,0.1l0.1,0l0-0.3l-0.1,0c-1-0.1-1.1-0.3-1.1-0.7c0-0.2,0-0.8,0.1-1.2
				l0.1-1.5l0.2-1.9c0-0.1,0-0.2,0-0.2c1.3,1.4,5.3,6.1,5.3,6.1l0.1,0.1l0.3-0.1l0-0.1c0,0,0.1-0.4,0.1-0.6l0.3-3.2l0.2-1.9
				c0-0.4,0.1-0.7,0.1-1c0.1-0.6,0.3-0.8,1.2-0.8l0.1,0l0-0.3l-0.2,0C103.7,80.5,103.6,80.5,103.5,80.5z"/>
			<path class="st0" d="M123.5,86.8l-2.2-6.7H121l0,0.1c0,0.1-2.9,5.7-3.3,6.5c-0.4,0.9-0.7,1.1-1.6,1.3l-0.1,0l0,0.3h0.2
				c0.2,0,0.8,0,1.2-0.1c0.1,0,0.3,0,0.3,0l1.5,0.1l0-0.3l-0.1,0c-0.3,0-0.5-0.1-0.5-0.2c-0.1-0.1-0.1-0.1-0.1-0.2
				c0-0.1,0.1-0.4,0.2-0.6c0.1-0.2,0.6-1.3,0.7-1.6l1.1,0l1.2,0c0.1,0.3,0.3,1.2,0.5,1.7c0.1,0.3,0.1,0.4,0,0.6
				c-0.1,0.1-0.3,0.2-0.7,0.3l-0.1,0l0,0.3h0.2c0.2,0,0.4,0,0.7,0c0.4,0,0.8,0,1.1,0c0.8,0,1.5,0.1,1.5,0.1l0.1,0l0-0.3l-0.1,0
				C124.1,88,123.7,87.6,123.5,86.8z M121.4,84.8l-1,0l-0.8,0l1.1-2.4L121.4,84.8z"/>
			<path class="st0" d="M17.4,88.6c2.5,0,4.5-1.8,4.7-4.2c0.1-1.1-0.2-2.1-0.9-2.9c-0.7-0.8-1.8-1.2-3.1-1.2c-2.8,0-4.5,2.1-4.7,4.1
				c-0.1,1.1,0.2,2.2,1,3C15.2,88.1,16.2,88.6,17.4,88.6z M18,80.9c0.6,0,1.2,0.2,1.6,0.7c0.6,0.7,0.9,1.7,0.8,2.9
				c-0.2,2.3-1.5,3.4-2.6,3.4c-0.6,0-1.2-0.2-1.6-0.7c-0.6-0.7-0.9-1.7-0.8-2.9C15.4,82.3,16.5,80.9,18,80.9z"/>
			<path class="st0" d="M23.1,81.3c0.1,0.1,0.4,0.7,0.5,0.9l0,0.1c0.4,0.8,1.3,2.6,1.4,2.9c-0.1,0.6-0.1,1.7-0.2,1.9
				c-0.1,0.6-0.4,0.7-1.2,0.8l-0.1,0l0,0.4l0.2,0c0.5,0,1.3-0.1,1.8-0.1c0.5,0,1.4,0,1.8,0.1l0.1,0l0-0.4l-0.2,0
				c-1-0.1-1.1-0.3-1.1-0.7c0-0.2,0-0.8,0.2-2.3c0.2-0.3,1.6-2.4,2.1-3c0.5-0.7,1-1,1.6-1.1l0.1,0l0-0.4l-0.2,0
				c-0.6,0-1.1,0.1-1.6,0.1c-0.2,0-0.4,0-0.5,0c-0.2,0-0.4,0-0.6,0l-0.1,0l0,0.3l0.2,0c0.2,0,0.4,0.1,0.5,0.2c0,0,0.1,0.1,0,0.2
				c0,0.1-0.1,0.2-0.2,0.3c-0.1,0.1-0.1,0.2-0.2,0.3c-0.3,0.5-1.1,1.7-1.4,2.2c-0.2-0.5-0.8-1.7-1-2.2l0-0.1
				c-0.1-0.2-0.2-0.5-0.2-0.6c0-0.2,0.2-0.3,0.5-0.3c0.1,0,0.1,0,0.2,0l0.1,0l0-0.4l-0.2,0c-0.4,0-1,0.1-1.6,0.1
				c-0.5,0-1.3,0-1.8-0.1l-0.1,0l0,0.4l0.2,0C22.6,80.9,22.9,81,23.1,81.3z"/>
			<path class="st0" d="M28.7,88l-0.1,0l0,0.4h0.2c0.2,0,0.8,0,1.2-0.1c0.2,0,0.3,0,0.3,0l1.5,0.1l0-0.4l-0.2,0
				c-0.3,0-0.4-0.1-0.5-0.2c0-0.1-0.1-0.1-0.1-0.2c0-0.1,0.1-0.4,0.2-0.5c0.1-0.2,0.6-1.3,0.7-1.6l1.1,0l1.1,0
				c0.1,0.3,0.3,1.2,0.5,1.7c0.1,0.3,0.1,0.4,0,0.5c-0.1,0.1-0.3,0.2-0.7,0.3l-0.1,0l0,0.4h0.2c0.2,0,0.4,0,0.7,0c0.4,0,0.8,0,1.1,0
				c0.8,0,1.5,0.1,1.5,0.1l0.1,0l0-0.4l-0.2,0c-0.6-0.1-1-0.4-1.2-1.2l-2.2-6.7h-0.3l0,0.1c0,0.1-2.9,5.7-3.3,6.5
				C29.8,87.5,29.5,87.8,28.7,88z M33.9,84.7l-1,0l-0.8,0l1.1-2.2L33.9,84.7z"/>
			<path class="st0" d="M44.6,86.4c-0.4,1-0.8,1.1-1.4,1.2c-0.4,0-0.6,0-1.1,0.1c-0.3,0-0.6-0.1-0.7-0.2c-0.1-0.1-0.2-0.3-0.1-0.6
				c0-0.4,0.1-0.9,0.1-1.3c0-0.3,0-0.6,0.1-0.7l0.2-2.1c0-0.4,0.1-0.7,0.1-1c0.1-0.6,0.3-0.8,1.1-0.8l0.1,0l0-0.4l-0.2,0
				c-0.4,0-1.2,0.1-1.7,0.1c-0.2,0-0.5,0-0.8,0c-0.4,0-0.7,0-1,0l-0.1,0l0,0.4l0.2,0c0.8,0.1,1,0.2,1,0.8c0,0.6-0.1,1.6-0.2,2.2
				c0,0.1,0,0.3,0,0.6c-0.1,0.9-0.2,2.3-0.3,2.8c-0.1,0.6-0.4,0.7-1.2,0.8l-0.1,0l0,0.4l0.2,0c0.9,0,1.8-0.1,2.7-0.1
				c0.9,0,1.7,0,2.6,0.1l0.1,0c0.5,0,0.6-0.3,0.7-0.5l0.4-1.5l-0.4-0.2L44.6,86.4z"/>
			<path class="st0" d="M59.5,80.1c0.3-0.9,0.4-1.5,0.2-1.7c-0.2-0.3-0.6-0.2-1.1,0.2c-0.9,0.6-3.1,4.1-4.2,5.8
				c0.5-1.7,1.3-4.2,1.5-4.7l0,0l0-0.1c0.2-0.7,0.2-1.1,0-1.3c-0.1-0.1-0.2-0.2-0.3-0.2c-0.2,0-0.4,0.1-0.5,0.2
				c-1,0.6-2.9,3.5-4.2,5.6c0.4-1.3,1-3.6,1.2-4.1l0-0.1c0.2-0.7,0.1-1.2-0.1-1.5c-0.1-0.2-0.3-0.3-0.6-0.2
				c-0.7,0.1-1.4,0.5-1.9,1.2c-1.1,1.6-1.5,4.7-0.8,7.6c0,0.1-0.1,0.2-0.1,0.3c-0.2,0.7-0.5,1.1-0.5,1.2L48,88.6h1.5l0.2-0.7
				c0.6-2.8,3.9-7.6,4.8-8.3c0,0,0,0,0,0c-0.3,0.9-2.1,7-2.3,7.7c-0.1,0.3-0.2,0.7-0.4,1l-0.1,0.2h1.6v-0.1c0-2.3,4.4-8.2,4.4-8.3
				l0,0c0.1-0.1,0.3-0.4,0.5-0.6c0,0.1-0.1,0.2-0.1,0.5c-0.3,1.1-2,6.1-2.2,6.9c-0.3,0.8-0.3,1.3-0.1,1.6c0.1,0.1,0.2,0.2,0.4,0.2
				c1.3,0,2.3-1,2.9-3l-0.3-0.1c-0.5,1.1-1.4,2.1-1.7,2.1l0,0c0,0-0.1-0.1,0.1-0.6L59.5,80.1z M49.3,85.2c-0.2-2.5,0.3-4.7,1.4-5.8
				c0.3-0.1,0.3-0.1,0.3-0.1s0.1,0.1,0,0.4C50.9,79.9,50,82.8,49.3,85.2z"/>
		</g>
	</g>
</g>
<text transform="matrix(1 0 0 1 28.7856 97.3203)" class="st0 st2 st3">Boutique &amp; Art Hotel</text>
</svg>
