<?xml version="1.0" encoding="utf-8"?>
<!-- Generator: Adobe Illustrator 22.1.0, SVG Export Plug-In . SVG Version: 6.00 Build 0)  -->
<svg version="1.1" id="Layer_1" xmlns="http://www.w3.org/2000/svg" xmlns:xlink="http://www.w3.org/1999/xlink" x="0px" y="0px"
	 viewBox="0 0 147 144" style="enable-background:new 0 0 147 144;" xml:space="preserve">
<style type="text/css">
	.st0{fill:#c5bba5;}
	.st1{fill-rule:evenodd;clip-rule:evenodd;fill:#c5bba5;}
</style>
<g>
	<g>
		<path class="st0" d="M109.3,44.7c1.5-6.1,1.6-10,0.1-11.7c-1.4-1.7-3.9-1.4-7.4,1.2c-5.6,3.9-19,28-25.4,40
			c2.6-11.7,6.4-28.5,7.3-32l0,0l0.1-0.7c0.8-4.5,0.6-7.4-0.7-8.9c-0.6-0.7-1.4-1.1-2.3-1.1c-1.5,0-2.7,1-3.2,1.4
			c-6.2,4.3-17.6,24-25.5,38.7c1.9-9.2,5-24.5,5.8-27.9l0.2-0.8c0.8-4.7,0.3-8.2-1.5-10.3c-1-1.2-2.5-1.8-4.1-1.6
			c-4.9,0.6-9.1,3.6-12.1,8.6c-6.8,11.2-7.2,32.1-1,52c-0.2,0.8-0.4,1.5-0.4,2.1c-1.1,4.8-2.6,7.9-2.7,7.9l-0.8,1.5l10.8,0.2
			c0,0.1,0.8-4.8,0.8-4.8c2.5-19.2,22.5-52,27.6-57c0,0,0,0.1,0,0.1c-1.5,5.9-9.9,47.9-10.8,52.7c-0.4,2.1-1.2,4.6-2.3,7.1l-0.7,1.6
			h10.9l-0.1-1c-1.4-15.6,25.2-56.3,25.5-56.6l0.1-0.2c0.4-0.7,2-2.9,3-3.9c-0.1,0.6-0.3,1.7-0.7,3.4c-1.7,7.4-9.7,41.9-10.9,47.2
			c-1.3,5.6-1.2,9,0.3,10.8c0.5,0.6,1.3,1.2,2.7,1.2c8.9,0,15.2-7.1,18.3-20.7l-1.9-0.7c-2.6,7.3-8.3,14.1-10.4,14.1l0,0
			c0,0-0.7-0.7,0-4.4L109.3,44.7z M42.4,79.8c-2.9-17.3-0.6-32.5,6.1-39.6c1.7-1,1.9-0.7,1.9-0.7s0.4,0.5,0,2.7
			C50.3,43.3,46.1,63.2,42.4,79.8z" fill="#c5bba5"/>
		<path class="st1" d="M5.8,87.4c1.4-1,5,3.6,8.3,3.7c2-0.8-1.7-3.7-0.9-6.4c-3,0.5-4.3-0.6-6.4-0.9c-2.2-3.3-2.4-8.6-3.7-12.8
			c3,1.3,4.2,4.4,7.3,5.5c2.5-0.8-1.3-2.9,0-5.5c-5.9-1-8.2-9.9-5.5-16.5c1.7,2.3,2,6,5.5,6.4c3.5-4.2-2-7.1-3.7-9.2
			C6.5,46.2,8,42.6,9.5,38.8c1.5,2.5,2,6,3.7,8.3c4.4-3.2,1.7-7.8-0.9-11c0.8-4.7,3.5-7.5,5.5-11c1.9,1.5,0.3,6.4,1.8,8.3
			c4-1.8,3.8-5.5,1.8-9.2c0.4-5.8,5.1-7.1,7.3-11c1.9,0.8-1.8,6.4,0.9,8.3c1.9-0.5,3-1.9,4.6-2.8c-4.1-8.3,4.3-11.5,8.3-14.7
			c2.1,1.9-2.5,4.8-0.9,9.2c3.6-0.7,3.1-5.5,5.5-7.3c3.8-0.8,6.7-2.5,11-2.8c-1.6,3.9-3.8,7.2-6.4,10.1c-3.5-0.2-6.8,0-9.2,0.9
			c1.4,2.6,4.8,3.2,8.3,3.7c-4.1,2.6-11.4,7-15.6,1.8c-1.6,0.8-2.8,2.1-3.7,3.7c1.3,0.9,6,3.1,7.3,0.9c0.4,2.4-8.8,10.4-12.9,5.5
			c-2.4,0.9-3,3.7-4.6,5.5c3.5,0.1,6.7,0,8.3-1.8c-0.2,3.2-4,10.7-11.9,9.2c-1.7,0.1-0.6,3.1-1.8,3.7c1.8,2.3,6.9,0.3,7.3-1.8
			c0.4,4.1-2.9,12.4-10.1,11.9c0.8,2.6-1.3,2.4-0.9,4.6c1.4,1.4,6.2-1.7,7.3-3.7c0.4,3.5-0.9,13.1-7.3,12.9c0,1.8,0,3.7,0,5.5
			c3.9-0.1,4.7-3.2,6.4-5.5c2.5,5,0.6,13.5-3.7,14.7c-0.7,2.8,0.9,3.3,0.9,5.5c2.7-1.3,3.8-4.2,4.6-7.3c3.1,2.9,4.2,12.2,0,14.7
			c0.3,2.1,0.9,4,2.7,4.6c2.2-1.2,1.8-5,2.8-7.3c2.7,3.3,6.9,9.9,2.8,14.7c0.8,1.6,2,2.8,3.7,3.7c2.1-1,0.4-5.8,0.9-8.3
			c3.6,3,9.2,7.3,6.4,13.8c0.3,1.9,2.4,1.8,3.7,2.8c2.1-1.2,0.9-6.9-0.9-7.3c3.5-0.1,11.2,3.5,10.1,11c12.9,7.6,28.8,6,43.1,0.9
			c-2.7-6.7,4.6-9.7,8.3-12.8c1.7,1.2-1.7,5-0.9,8.3c1.2,2.3,3-2.4,5.5-1.8c-3.3-6.9,2.1-12.4,6.4-14.7c-1.8,1.9-0.7,6.1,0,8.3
			c2.9,0.4,2.4-2.5,4.6-2.8c-4.8-5-1-10.9,1.8-15.6c1.5,2.2,1.8,5.6,2.8,8.3c1.7-1,2-3.6,3.7-4.6c-5-3.4-3.2-9.5-1.8-15.6
			c2.3,1.7,3.5,4.5,4.6,7.3c2.4-0.1,1.5-3.4,2.8-4.6c-4.3-4.3-5.9-7-4.6-15.6c2,2.2,3.7,4.9,6.4,6.4c0.5-1.6-1.1-5.4,0.9-5.5
			c-5.8-1.5-8.2-6.5-8.3-13.8c1.9,1.8,4.5,2.9,6.4,4.6c2,0.2,0.4-3.3,0.9-4.6c-5.9-1.8-9.7-5.6-11-11.9c2.8,0.9,5.5,1.9,8.3,2.8
			c0.2-2.7-2.1-2.8-1.8-5.5c-8.1,1.4-9.5-3.9-12.8-7.3c1.9-2.7,4.8,1.2,8.3,0c0-2.7-2.4-3.1-2.8-5.5c-2,0.7-3.6,1.9-6.4,1.8
			c-2.9-2.3-7-3.4-8.3-7.3c2.5,2.3,4.8-0.6,8.3,0c-1.9-6-5.3-3.3-10.1-1.8c-3.8-0.5-5.4-3.2-9.2-3.7c2.4-1.5,5.5-2.4,8.3-3.7
			c-1.3-2.7-6.4-1.6-10.1-1.8c-2.3-2.9-4.6-5.8-5.5-10.1c8.2,0.4,12.2,4.9,15.6,10.1c2.2-2-0.4-6.9-1.8-8.3c3.2-0.7,8.5,4.3,11,7.3
			c0.3,2.1-0.2,3.5-0.9,4.6c0.1,2.7,2.1,3.4,3.7,4.6c1.5-0.4,1.5-6.9,0-7.3c3.5-1.9,5.6,5.4,8.3,7.3c0.4,3.5-0.3,5.9-1.8,7.3
			c0.8,1.6,2.2,2.7,2.7,4.6c2.4-0.4,4.1-6.2,1.8-8.3c2.7-0.9,5.1,6.5,6.4,10.1c0.1,4.7-4.7,6.2-1.8,11c3.8-0.1,3.4-4.5,4.6-7.3
			c3.3,4.6,5.8,15.1-1.9,16.5c0,2.2,1.6,2.7,0.9,5.5c1.5,1.1,5.3-3.3,5.5-6.4c2.1,2.5,0.3,8.9,0.9,12.9c-1.9,1.5-3.8,3-6.4,3.7
			c0,1.8,0,3.7,0,5.5c2.8-1.5,6.4-2.2,6.4-6.4c1.6,5.3,0.1,15.4-7.3,14.7c-2.2,0.5-2,3.5-2.7,5.5c1.3,1.2,6.7-1.2,7.3-3.7
			c1.2,4.3-3.8,15.1-10.1,11.9c-2.4,0.9-3,3.7-4.6,5.5c3.3,0,7.2,0.5,8.3-1.8c1.2,3.4-4.6,7.6-7.3,10.1c-5.1-0.4-7.5-1.5-10.1,1.8
			c0.7,3.3,7,1.6,9.2,0.9c-2.6,3.8-6.4,6.5-11,8.3c-2.8,0-3.6-1.9-5.5-2.7c-2.4,0.4-2.8,2.7-5.5,2.7c2,2,5,2.9,9.2,2.8
			c-2.8,2.8-14.6,8.6-16.5,0.9c-5.3,2.1-11.3,3.4-17.4,4.6c4.8,4.1,14,3.7,19.3,7.3c-5.9,5.5-16.1-4.1-23.9-5.5
			c-8.7,0-19.9,12.4-24.8,4.6c6.9-1.3,12.5-4,19.3-5.5c-4.5-2.8-12.3-2.4-16.5-5.5c-2.1,1.5-3.9,3.5-6.4,4.6
			c-3.7-1.5-7.8-2.6-11-4.6c2.4-1.3,5.8-1.6,8.3-2.8c-0.1-2.4-3.6-1.3-3.7-3.7c-2.9,0.5-4,2.7-7.3,2.7c-4-1.8-6.9-4.7-10.1-7.3
			c0.3-1.2,7.5,1.4,9.2-0.9c-1.5-1.3-2.9-2.6-4.6-3.7c-7.9,3.4-10.9-4.7-14.7-8.3c1.8-2.4,4.2,2.5,8.3,0.9c1.8-0.7-1.6-3.8-1.8-5.5
			C10.4,102.2,8.6,92.1,5.8,87.4z" fill="#c5bba5"/>
	</g>
</g>
</svg>
